<svg width="24" height="24" viewBox="0 0 24 24" fill="none" xmlns="http://www.w3.org/2000/svg">
<rect width="24" height="24" fill="#F5F5F5"/>
<path d="M-80 -621C-80 -647.187 -80 -660.281 -74.1056 -669.9C-70.8074 -675.282 -66.2822 -679.807 -60.8999 -683.106C-51.2812 -689 -38.1874 -689 -12 -689H890C916.187 -689 929.281 -689 938.9 -683.106C944.282 -679.807 948.807 -675.282 952.106 -669.9C958 -660.281 958 -647.187 958 -621V36C958 62.1874 958 75.2812 952.106 84.9C948.807 90.2822 944.282 94.8074 938.9 98.1056C929.281 104 916.187 104 890 104H-12C-38.1875 104 -51.2812 104 -60.8999 98.1056C-66.2822 94.8074 -70.8074 90.2822 -74.1056 84.9C-80 75.2812 -80 62.1874 -80 36V-621Z" fill="white"/>
<path d="M12 24C18.6274 24 24 18.6274 24 12C24 5.37258 18.6274 0 12 0C5.37258 0 0 5.37258 0 12C0 18.6274 5.37258 24 12 24Z" fill="#F0F0F0"/>
<path d="M24.0003 12C24.0003 6.84043 20.7438 2.44191 16.1742 0.746399V23.2537C20.7438 21.5581 24.0003 17.1596 24.0003 12Z" fill="#ED2939"/>
<path d="M0 12C0 17.1596 3.25655 21.5581 7.82611 23.2536V0.746399C3.25655 2.44191 0 6.84043 0 12Z" fill="#002395"/>
</svg>
