<svg width="24" height="24" viewBox="0 0 24 24" fill="none" xmlns="http://www.w3.org/2000/svg">
<rect width="24" height="24" fill="#F5F5F5"/>
<path d="M-420 -621C-420 -647.187 -420 -660.281 -414.106 -669.9C-410.807 -675.282 -406.282 -679.807 -400.9 -683.106C-391.281 -689 -378.187 -689 -352 -689H550C576.187 -689 589.281 -689 598.9 -683.106C604.282 -679.807 608.807 -675.282 612.106 -669.9C618 -660.281 618 -647.187 618 -621V36C618 62.1874 618 75.2812 612.106 84.9C608.807 90.2822 604.282 94.8074 598.9 98.1056C589.281 104 576.187 104 550 104H-352C-378.187 104 -391.281 104 -400.9 98.1056C-406.282 94.8074 -410.807 90.2822 -414.106 84.9C-420 75.2812 -420 62.1874 -420 36V-621Z" fill="white"/>
<path d="M12 24C18.6274 24 24 18.6274 24 12C24 5.37258 18.6274 0 12 0C5.37258 0 0 5.37258 0 12C0 18.6274 5.37258 24 12 24Z" fill="#F0F0F0"/>
<path d="M24 12C24 18.6274 18.6274 24 12 24C5.37262 24 0 18.6274 0 12" fill="#D80027"/>
</svg>
