<svg width="24" height="24" viewBox="0 0 24 24" fill="none" xmlns="http://www.w3.org/2000/svg">
<rect width="24" height="24" fill="#F5F5F5"/>
<path d="M-755 -229C-755 -255.187 -755 -268.281 -749.106 -277.9C-745.807 -283.282 -741.282 -287.807 -735.9 -291.106C-726.281 -297 -713.187 -297 -687 -297H215C241.187 -297 254.281 -297 263.9 -291.106C269.282 -287.807 273.807 -283.282 277.106 -277.9C283 -268.281 283 -255.187 283 -229V428C283 454.187 283 467.281 277.106 476.9C273.807 482.282 269.282 486.807 263.9 490.106C254.281 496 241.187 496 215 496H-687C-713.187 496 -726.281 496 -735.9 490.106C-741.282 486.807 -745.807 482.282 -749.106 476.9C-755 467.281 -755 454.187 -755 428V-229Z" fill="white"/>
<path d="M12 24C18.6274 24 24 18.6274 24 12C24 5.37258 18.6274 0 12 0C5.37258 0 0 5.37258 0 12C0 18.6274 5.37258 24 12 24Z" fill="#F0F0F0"/>
<path d="M12 24C18.6274 24 24 18.6274 24 12C24 10.5322 23.736 9.12605 23.2536 7.82611H0.746391C0.264047 9.12605 0 10.5322 0 12C0 18.6274 5.37262 24 12 24Z" fill="#0052B4"/>
<path d="M11.9989 24C17.1585 24 21.557 20.7435 23.2525 16.1739H0.7453C2.44082 20.7435 6.83933 24 11.9989 24Z" fill="#D80027"/>
<path d="M3.10315 6.78262V12.7688C3.10315 16.174 7.55163 17.2174 7.55163 17.2174C7.55163 17.2174 12.0001 16.174 12.0001 12.7688V6.78262H3.10315Z" fill="#F0F0F0"/>
<path d="M4.14612 6.78262V12.7688C4.14612 13.1686 4.2349 13.5461 4.41077 13.9001H10.6914C10.8673 13.5462 10.9561 13.1686 10.9561 12.7688V6.78262H4.14612Z" fill="#D80027"/>
<path d="M9.63953 10.9565H8.07437V9.91303H9.11786V8.86955H8.07437V7.82611H7.03089V8.86955H5.98745V9.91303H7.03089V10.9565H5.46564V12H7.03089V13.0435H8.07437V12H9.63953V10.9565Z" fill="#F0F0F0"/>
<path d="M5.83422 15.3567C6.50664 15.7793 7.19748 16.0246 7.55115 16.1338C7.90482 16.0247 8.59567 15.7793 9.26809 15.3567C9.94618 14.9305 10.4215 14.4431 10.6914 13.9001C10.3937 13.6895 10.0305 13.5652 9.63812 13.5652C9.49525 13.5652 9.35645 13.5822 9.223 13.6132C8.9402 12.9707 8.29825 12.5218 7.5512 12.5218C6.80415 12.5218 6.16215 12.9707 5.8794 13.6132C5.74595 13.5822 5.60711 13.5652 5.46428 13.5652C5.07189 13.5652 4.70865 13.6895 4.41095 13.9001C4.68072 14.4431 5.15607 14.9305 5.83422 15.3567Z" fill="#0052B4"/>
</svg>
