<svg width="24" height="24" viewBox="0 0 24 24" fill="none" xmlns="http://www.w3.org/2000/svg">
<rect width="24" height="24" fill="#F5F5F5"/>
<path d="M-755 -509C-755 -535.187 -755 -548.281 -749.106 -557.9C-745.807 -563.282 -741.282 -567.807 -735.9 -571.106C-726.281 -577 -713.187 -577 -687 -577H215C241.187 -577 254.281 -577 263.9 -571.106C269.282 -567.807 273.807 -563.282 277.106 -557.9C283 -548.281 283 -535.187 283 -509V148C283 174.187 283 187.281 277.106 196.9C273.807 202.282 269.282 206.807 263.9 210.106C254.281 216 241.187 216 215 216H-687C-713.187 216 -726.281 216 -735.9 210.106C-741.282 206.807 -745.807 202.282 -749.106 196.9C-755 187.281 -755 174.187 -755 148V-509Z" fill="white"/>
<path d="M12 24C18.6274 24 24 18.6274 24 12C24 5.37258 18.6274 0 12 0C5.37258 0 0 5.37258 0 12C0 18.6274 5.37258 24 12 24Z" fill="#D80027"/>
<path d="M11.5097 9.80554L12.4943 11.1623L14.0888 10.6453L13.1027 12.0009L14.0872 13.3577L12.4932 12.8387L11.5071 14.1943L11.5081 12.518L9.91406 11.999L11.5087 11.482L11.5097 9.80554Z" fill="#F0F0F0"/>
<path d="M8.8204 15.3913C6.94746 15.3913 5.42909 13.8729 5.42909 12C5.42909 10.127 6.94746 8.60867 8.8204 8.60867C9.40437 8.60867 9.95384 8.75638 10.4336 9.0163C9.68098 8.28027 8.65174 7.82605 7.51605 7.82605C5.21083 7.82605 3.34216 9.69477 3.34216 11.9999C3.34216 14.3051 5.21088 16.1738 7.51605 16.1738C8.65183 16.1738 9.68102 15.7196 10.4336 14.9836C9.95384 15.2436 9.40437 15.3913 8.8204 15.3913Z" fill="#F0F0F0"/>
</svg>
