<svg width="24" height="24" viewBox="0 0 24 24" fill="none" xmlns="http://www.w3.org/2000/svg">
<path d="M12 24C18.6274 24 24 18.6274 24 12C24 5.37258 18.6274 0 12 0C5.37258 0 0 5.37258 0 12C0 18.6274 5.37258 24 12 24Z" fill="#005430"/>
<path d="M6.78281 14.3478C6.78281 15.2123 7.4836 15.913 8.34802 15.913H13.0437C13.0437 16.6334 13.6276 17.2174 14.348 17.2174H15.9132C16.6336 17.2174 17.2176 16.6334 17.2176 15.913V14.3478H6.78281Z" fill="#F0F0F0"/>
<path d="M17.3478 6.78262V10.4348C17.3478 11.0102 16.8797 11.4783 16.3043 11.4783V13.0435C17.7428 13.0435 18.913 11.8732 18.913 10.4348V6.78262H17.3478Z" fill="#F0F0F0"/>
<path d="M6.1306 10.4348C6.1306 11.0102 5.6625 11.4783 5.08711 11.4783V13.0435C6.52557 13.0435 7.6958 11.8732 7.6958 10.4348V6.78262H6.1306V10.4348Z" fill="#F0F0F0"/>
<path d="M15 6.78262H16.5652V10.4348H15V6.78262Z" fill="#F0F0F0"/>
<path d="M12.6524 8.86953C12.6524 9.01339 12.5354 9.13039 12.3915 9.13039C12.2477 9.13039 12.1307 9.01334 12.1307 8.86953V6.78256H10.5655V8.86953C10.5655 9.01339 10.4484 9.13039 10.3046 9.13039C10.1608 9.13039 10.0438 9.01334 10.0438 8.86953V6.78256H8.47852V8.86953C8.47852 9.87645 9.2977 10.6956 10.3046 10.6956C10.6924 10.6956 11.052 10.5738 11.3481 10.3668C11.6441 10.5737 12.0038 10.6956 12.3916 10.6956C12.4697 10.6956 12.5465 10.6902 12.622 10.6805C12.5111 11.1375 12.0995 11.4782 11.609 11.4782V13.0434C13.0474 13.0434 14.2177 11.8731 14.2177 10.4347V8.86953V6.78256H12.6525V8.86953H12.6524Z" fill="#F0F0F0"/>
<path d="M8.47852 11.4783H10.8263V13.0435H8.47852V11.4783Z" fill="#F0F0F0"/>
</svg>
