<svg width="24" height="24" viewBox="0 0 24 24" fill="none" xmlns="http://www.w3.org/2000/svg">
<path d="M12 0C18.6274 0 24 5.37263 24 12C24 18.6274 18.6274 24 12 24C5.3727 24 9.15527e-05 18.6274 9.15527e-05 12" fill="#FFD500"/>
<path d="M11.7398 5.33336H21.9794C21.3051 4.32616 20.4823 3.42709 19.5425 2.66669H11.7398V5.33336Z" fill="#D80027"/>
<path d="M11.7398 10.6667H23.9266C23.8243 9.74203 23.6171 8.8492 23.3169 8.00006H11.7398V10.6667Z" fill="#D80027"/>
<path d="M0.684651 16H23.317C23.6171 15.1509 23.8244 14.258 23.9267 13.3333H0.0749969C0.177184 14.258 0.384465 15.1509 0.684651 16Z" fill="#D80027"/>
<path d="M4.4571 21.3333H19.5407C20.4805 20.573 21.3033 19.6738 21.9775 18.6667H2.02031C2.69456 19.6738 3.5173 20.5729 4.4571 21.3333Z" fill="#D80027"/>
<path d="M12 0C5.37261 0 -4.68745e-05 5.37262 3.06725e-10 12.0001C2.73871 12 5.3726 12.0001 12 12.0001L12 0Z" fill="#4A1F63"/>
<path d="M9.91296 6.26086V7.30435H9.39124V6.26086H8.34776V7.30435H7.82605V5.21738H5.73908V7.30435H5.21732V6.26086H4.17389V7.30435H3.65212V6.26086H2.6086V9.39127H10.9564V6.26086H9.91296Z" fill="#F0F0F0"/>
</svg>
