<svg width="24" height="24" viewBox="0 0 24 24" fill="none" xmlns="http://www.w3.org/2000/svg">
<path d="M11.9995 23.9991C18.6267 23.9991 23.9991 18.6267 23.9991 11.9995C23.9991 5.37238 18.6267 0 11.9995 0C5.37237 0 0 5.37238 0 11.9995C0 18.6267 5.37237 23.9991 11.9995 23.9991Z" fill="#F0F0F0"/>
<path d="M10.957 11.9995C10.957 11.9995 3.52252 20.4861 3.51549 20.4845C5.68693 22.6559 8.68686 23.9991 12.0005 23.9991C18.6276 23.9991 24 18.6266 24 11.9995H10.957Z" fill="#D80027"/>
<path d="M3.51457 3.51434C-1.17152 8.20045 -1.17152 15.7982 3.51457 20.4843C5.45104 18.5478 7.31346 16.6854 11.9996 11.9993L3.51457 3.51434Z" fill="#11457E"/>
</svg>
