<svg width="24" height="24" viewBox="0 0 24 24" fill="none" xmlns="http://www.w3.org/2000/svg">
<path d="M0.7453 16.1739C2.44082 20.7435 6.83933 24 11.9989 24C17.1585 24 21.557 20.7435 23.2525 16.1739L11.9989 15.1305L0.7453 16.1739Z" fill="#FFCE00"/>
<path d="M11.9989 0C6.83933 0 2.44082 3.2565 0.7453 7.82611L11.9989 8.86954L23.2525 7.82606C21.557 3.2565 17.1585 0 11.9989 0Z" fill="black"/>
<path d="M0.746391 7.82611C0.264047 9.12609 0 10.5322 0 12C0 13.4678 0.264047 14.8739 0.746391 16.1739H23.2537C23.736 14.8739 24 13.4678 24 12C24 10.5322 23.736 9.12609 23.2536 7.82611H0.746391Z" fill="#DA0000"/>
</svg>
