<svg width="24" height="24" viewBox="0 0 24 24" fill="none" xmlns="http://www.w3.org/2000/svg">
<path d="M12 24C18.6274 24 24 18.6274 24 12C24 5.37258 18.6274 0 12 0C5.37258 0 0 5.37258 0 12C0 18.6274 5.37258 24 12 24Z" fill="#F0F0F0"/>
<path d="M16.5181 9.39128H13.5058L11.9997 6.78259L10.4936 9.39128H7.48126L8.98754 12L7.48126 14.6087H10.4936L11.9997 17.2173L13.5058 14.6087H16.5181L15.0118 12L16.5181 9.39128ZM13.8501 12L12.925 13.6025H11.0746L10.1493 12L11.0745 10.3974H12.9249L13.8501 12ZM11.9997 8.7948L12.344 9.39123H11.6554L11.9997 8.7948ZM9.22403 10.3974H9.91272L9.56837 10.9938L9.22403 10.3974ZM9.22403 13.6025L9.56842 13.0061L9.91276 13.6025H9.22403ZM11.9997 15.2051L11.6554 14.6087H12.344L11.9997 15.2051ZM14.7753 13.6025H14.0867L14.431 13.0061L14.7753 13.6025ZM14.0867 10.3974H14.7753L14.431 10.9938L14.0867 10.3974Z" fill="#0052B4"/>
<path d="M19.4687 2.6087H4.52902C3.43388 3.48095 2.49469 4.54042 1.76016 5.73916H22.2376C21.503 4.54047 20.5638 3.48095 19.4687 2.6087Z" fill="#0052B4"/>
<path d="M4.52902 21.3913H19.4687C20.5638 20.5191 21.503 19.4596 22.2376 18.2609H1.76016C2.49474 19.4596 3.43393 20.5191 4.52902 21.3913Z" fill="#0052B4"/>
</svg>
