<svg width="24" height="24" viewBox="0 0 24 24" fill="none" xmlns="http://www.w3.org/2000/svg">
<g clip-path="url(#clip0_25_3787)">
<path d="M0 0H24V24H0V0Z" fill="#00ABC2"/>
<path d="M12.0115 13.3092C13.7949 13.3092 15.2407 11.8635 15.2407 10.08C15.2407 8.29659 13.7949 6.85083 12.0115 6.85083C10.228 6.85083 8.78229 8.29659 8.78229 10.08C8.78229 11.8635 10.228 13.3092 12.0115 13.3092Z" fill="#FFEC2D"/>
<path d="M12.0114 6.41061C12.2034 6.40821 12.2754 6.28821 12.2754 6.14421C12.2754 5.95221 12.0114 5.03781 12.0114 5.03781C12.0114 5.03781 11.7474 5.95221 11.7474 6.14421C11.7474 6.28821 11.8194 6.41061 12.0114 6.41061Z" fill="#FFEC2D"/>
<path d="M15.681 10.0802C15.6834 10.2722 15.8034 10.3442 15.9474 10.3442C16.1394 10.3442 17.0538 10.0802 17.0538 10.0802C17.0538 10.0802 16.1394 9.81619 15.9474 9.81619C15.8034 9.81619 15.681 9.88819 15.681 10.0802Z" fill="#FFEC2D"/>
<path d="M12.0114 13.7498C11.8194 13.7522 11.7474 13.8722 11.7474 14.0162C11.7474 14.2082 12.0114 15.1226 12.0114 15.1226C12.0114 15.1226 12.2754 14.2082 12.2754 14.0162C12.2754 13.8722 12.2034 13.7498 12.0114 13.7498Z" fill="#FFEC2D"/>
<path d="M8.34176 10.0802C8.33936 9.88821 8.21936 9.81621 8.07536 9.81621C7.88336 9.81621 6.96896 10.0802 6.96896 10.0802C6.96896 10.0802 7.88336 10.3442 8.07536 10.3442C8.21936 10.3442 8.34176 10.2722 8.34176 10.0802Z" fill="#FFEC2D"/>
<path d="M13.4155 6.68986C13.5939 6.76111 13.7063 6.6778 13.7614 6.54476C13.8349 6.36738 13.9409 5.42155 13.9409 5.42155C13.9409 5.42155 13.3471 6.16532 13.2736 6.34271C13.2185 6.47575 13.2382 6.61638 13.4155 6.68986Z" fill="#FFEC2D"/>
<path d="M15.4015 11.4844C15.3303 11.6627 15.4136 11.7751 15.5466 11.8302C15.724 11.9037 16.6698 12.0097 16.6698 12.0097C16.6698 12.0097 15.926 11.4159 15.7487 11.3424C15.6156 11.2873 15.475 11.307 15.4015 11.4844Z" fill="#FFEC2D"/>
<path d="M10.6069 13.4704C10.4286 13.3991 10.3162 13.4824 10.2611 13.6155C10.1876 13.7928 10.0816 14.7387 10.0816 14.7387C10.0816 14.7387 10.6754 13.9949 10.7489 13.8175C10.804 13.6845 10.7843 13.5438 10.6069 13.4704Z" fill="#FFEC2D"/>
<path d="M8.62098 8.67579C8.69224 8.49749 8.60892 8.38505 8.47589 8.32994C8.2985 8.25647 7.35268 8.15044 7.35268 8.15044C7.35268 8.15044 8.09644 8.74427 8.27383 8.81775C8.40687 8.87286 8.5475 8.85318 8.62098 8.67579Z" fill="#FFEC2D"/>
<path d="M14.6063 7.48509C14.7437 7.61916 14.8795 7.58522 14.9813 7.48339C15.1171 7.34763 15.577 6.51437 15.577 6.51437C15.577 6.51437 14.7437 6.97428 14.608 7.11004C14.5062 7.21186 14.4705 7.34933 14.6063 7.48509Z" fill="#FFEC2D"/>
<path d="M14.6063 12.6747C14.4722 12.8121 14.5062 12.9479 14.608 13.0497C14.7437 13.1855 15.577 13.6454 15.577 13.6454C15.577 13.6454 15.1171 12.8121 14.9813 12.6764C14.8795 12.5745 14.742 12.5389 14.6063 12.6747Z" fill="#FFEC2D"/>
<path d="M9.4167 12.6747C9.27924 12.5406 9.14347 12.5745 9.04165 12.6764C8.90589 12.8121 8.44598 13.6454 8.44598 13.6454C8.44598 13.6454 9.27924 13.1855 9.415 13.0497C9.51683 12.9479 9.55246 12.8104 9.4167 12.6747Z" fill="#FFEC2D"/>
<path d="M9.4167 7.48509C9.55077 7.34763 9.51683 7.21186 9.415 7.11004C9.27924 6.97428 8.44598 6.51437 8.44598 6.51437C8.44598 6.51437 8.90589 7.34763 9.04165 7.48339C9.14347 7.58522 9.28094 7.62085 9.4167 7.48509Z" fill="#FFEC2D"/>
<path d="M15.4017 8.67581C15.4774 8.85227 15.6158 8.87287 15.7488 8.81776C15.9262 8.74429 16.67 8.15046 16.67 8.15046C16.67 8.15046 15.7241 8.25648 15.5468 8.32996C15.4137 8.38506 15.3282 8.49842 15.4017 8.67581Z" fill="#FFEC2D"/>
<path d="M13.4157 13.4704C13.2392 13.5461 13.2186 13.6845 13.2737 13.8175C13.3472 13.9949 13.941 14.7387 13.941 14.7387C13.941 14.7387 13.835 13.7928 13.7615 13.6155C13.7064 13.4824 13.5931 13.3969 13.4157 13.4704Z" fill="#FFEC2D"/>
<path d="M8.62113 11.4844C8.54544 11.3079 8.40702 11.2873 8.27398 11.3425C8.0966 11.4159 7.35283 12.0098 7.35283 12.0098C7.35283 12.0098 8.29865 11.9037 8.47604 11.8303C8.60908 11.7752 8.69461 11.6618 8.62113 11.4844Z" fill="#FFEC2D"/>
<path d="M10.6071 6.68983C10.7836 6.61413 10.8042 6.47571 10.7491 6.34268C10.6756 6.16529 10.0818 5.42152 10.0818 5.42152C10.0818 5.42152 10.1878 6.36735 10.2613 6.54473C10.3164 6.67777 10.4297 6.7633 10.6071 6.68983Z" fill="#FFEC2D"/>
<path d="M12.7275 6.48115C12.9163 6.51625 13.0103 6.4126 13.0384 6.27137C13.0759 6.08306 12.9953 5.13473 12.9953 5.13473C12.9953 5.13473 12.558 5.98005 12.5205 6.16836C12.4924 6.3096 12.5392 6.44369 12.7275 6.48115Z" fill="#FFEC2D"/>
<path d="M15.6106 10.7961C15.5755 10.9849 15.6792 11.0789 15.8204 11.107C16.0087 11.1445 16.9571 11.064 16.9571 11.064C16.9571 11.064 16.1117 10.6266 15.9234 10.5892C15.7822 10.5611 15.6481 10.6078 15.6106 10.7961Z" fill="#FFEC2D"/>
<path d="M11.2957 13.6793C11.1069 13.6442 11.0129 13.7479 10.9848 13.8891C10.9473 14.0774 11.0278 15.0258 11.0278 15.0258C11.0278 15.0258 11.4652 14.1804 11.5026 13.9921C11.5307 13.8509 11.484 13.7168 11.2957 13.6793Z" fill="#FFEC2D"/>
<path d="M8.41248 9.36433C8.44759 9.17555 8.34394 9.08152 8.20271 9.05343C8.01439 9.01597 7.06606 9.09651 7.06606 9.09651C7.06606 9.09651 7.91139 9.53383 8.0997 9.57129C8.24093 9.59938 8.37503 9.55264 8.41248 9.36433Z" fill="#FFEC2D"/>
<path d="M14.0501 7.02899C14.2111 7.13366 14.3376 7.07389 14.4176 6.95415C14.5243 6.79451 14.8128 5.88755 14.8128 5.88755C14.8128 5.88755 14.0852 6.50117 13.9786 6.66081C13.8986 6.78054 13.8904 6.92232 14.0501 7.02899Z" fill="#FFEC2D"/>
<path d="M15.0625 12.1189C14.9579 12.2798 15.0176 12.4064 15.1374 12.4864C15.297 12.5931 16.204 12.8816 16.204 12.8816C16.204 12.8816 15.5904 12.154 15.4307 12.0474C15.311 11.9674 15.1692 11.9592 15.0625 12.1189Z" fill="#FFEC2D"/>
<path d="M9.97262 13.1313C9.81165 13.0266 9.68511 13.0864 9.60511 13.2061C9.49844 13.3658 9.20994 14.2727 9.20994 14.2727C9.20994 14.2727 9.93746 13.6591 10.0441 13.4995C10.1241 13.3797 10.1323 13.238 9.97262 13.1313Z" fill="#FFEC2D"/>
<path d="M8.9602 8.04141C9.06487 7.88043 9.0051 7.7539 8.88537 7.6739C8.72573 7.56723 7.81876 7.27872 7.81876 7.27872C7.81876 7.27872 8.43238 8.00624 8.59203 8.11291C8.71176 8.19292 8.85353 8.20105 8.9602 8.04141Z" fill="#FFEC2D"/>
<path d="M15.0626 8.04143C15.1713 8.19974 15.311 8.19294 15.4308 8.11293C15.5904 8.00626 16.204 7.27874 16.204 7.27874C16.204 7.27874 15.2971 7.56725 15.1374 7.67392C15.0177 7.75392 14.9559 7.88179 15.0626 8.04143Z" fill="#FFEC2D"/>
<path d="M14.0502 13.1313C13.8918 13.24 13.8986 13.3797 13.9786 13.4995C14.0853 13.6591 14.8128 14.2727 14.8128 14.2727C14.8128 14.2727 14.5243 13.3658 14.4177 13.2061C14.3377 13.0864 14.2098 13.0246 14.0502 13.1313Z" fill="#FFEC2D"/>
<path d="M8.96029 12.1188C8.85162 11.9605 8.71184 11.9673 8.59211 12.0473C8.43247 12.154 7.81884 12.8815 7.81884 12.8815C7.81884 12.8815 8.72581 12.593 8.88545 12.4864C9.00518 12.4064 9.06696 12.2785 8.96029 12.1188Z" fill="#FFEC2D"/>
<path d="M9.97273 7.02898C10.131 6.92032 10.1242 6.78054 10.0442 6.66081C9.93757 6.50117 9.21005 5.88754 9.21005 5.88754C9.21005 5.88754 9.49855 6.79451 9.60522 6.95415C9.68522 7.07388 9.81309 7.13565 9.97273 7.02898Z" fill="#FFEC2D"/>
<path d="M15.6106 9.36433C15.6504 9.55218 15.7822 9.59938 15.9234 9.57129C16.1117 9.53383 16.9571 9.09651 16.9571 9.09651C16.9571 9.09651 16.0087 9.01598 15.8204 9.05343C15.6792 9.08153 15.5732 9.17602 15.6106 9.36433Z" fill="#FFEC2D"/>
<path d="M12.7274 13.6794C12.5396 13.7192 12.4924 13.8509 12.5205 13.9921C12.5579 14.1805 12.9953 15.0258 12.9953 15.0258C12.9953 15.0258 13.0758 14.0774 13.0383 13.8891C13.0102 13.7479 12.9157 13.6419 12.7274 13.6794Z" fill="#FFEC2D"/>
<path d="M8.41244 10.7961C8.37263 10.6083 8.24089 10.5611 8.09966 10.5892C7.91135 10.6266 7.06602 11.0639 7.06602 11.0639C7.06602 11.0639 8.01435 11.1445 8.20266 11.107C8.3439 11.0789 8.4499 10.9844 8.41244 10.7961Z" fill="#FFEC2D"/>
<path d="M11.2956 6.48117C11.4835 6.44136 11.5307 6.30962 11.5026 6.16838C11.4651 5.98007 11.0278 5.13474 11.0278 5.13474C11.0278 5.13474 10.9473 6.08308 10.9847 6.27139C11.0128 6.41262 11.1073 6.51862 11.2956 6.48117Z" fill="#FFEC2D"/>
<path d="M11.4355 17.075C11.3491 17.0798 11.2651 17.0909 11.1826 17.1173C11.0698 17.1326 10.9618 17.1717 10.8499 17.1902L10.805 17.1974L10.7299 17.2046C10.7347 17.2253 10.7378 17.2461 10.7378 17.267C10.7378 17.2886 10.7354 17.3093 10.7299 17.327C10.7251 17.3438 10.7098 17.3645 10.6978 17.3774C10.6819 17.3949 10.6651 17.4101 10.645 17.4197C10.6258 17.4293 10.6042 17.4333 10.5826 17.435C10.561 17.4357 10.5386 17.435 10.5178 17.4269C10.4962 17.4197 10.4762 17.4062 10.4578 17.3901C10.4357 17.3956 10.4133 17.3996 10.3906 17.4021C10.3682 17.4045 10.3474 17.4045 10.3274 17.4021C10.3051 17.3957 10.2818 17.3885 10.2602 17.3798C10.2385 17.3707 10.2176 17.3598 10.1978 17.3469C10.1162 17.3949 10.025 17.4405 9.97543 17.5245C9.94745 17.5629 9.94183 17.6069 9.93545 17.6525C9.93144 17.7086 9.94584 17.7677 9.96984 17.8197C9.97865 17.8349 9.98585 17.7645 10.013 17.7549C10.0586 17.7173 10.1155 17.6901 10.1731 17.675C10.2218 17.6501 10.2154 17.6765 10.1954 17.7149C10.1906 17.735 10.1635 17.8109 10.2002 17.7725C10.3627 17.7005 10.5427 17.6861 10.7179 17.6726C10.9723 17.6462 11.2274 17.6405 11.4826 17.6373L12.2026 17.6525C12.317 17.6558 12.4322 17.6813 12.545 17.6621C12.5722 17.6549 12.6146 17.6534 12.6307 17.6373C12.5794 17.6078 12.5194 17.6069 12.4627 17.5997H12.005C11.8778 17.5869 11.745 17.5853 11.625 17.5373C11.593 17.5245 11.5634 17.4941 11.533 17.5269C11.4874 17.543 11.4386 17.5541 11.3906 17.5574C11.3066 17.5637 11.2226 17.5461 11.145 17.5149C11.201 17.4374 11.2682 17.3693 11.3299 17.2973C11.2802 17.2893 11.2322 17.279 11.1826 17.267C11.2699 17.207 11.3506 17.1389 11.4355 17.075Z" fill="#FFEC2D"/>
<path d="M15.173 17.904C14.9992 18.0084 14.8664 17.8233 14.7211 17.7678C14.6173 17.8242 14.6076 18.0128 14.5106 18.1021C14.3946 18.2341 14.2524 18.0652 14.263 17.9349C14.1242 18.0519 14.054 18.3171 13.8296 18.2816C13.7233 18.1949 13.6443 18.0128 13.563 18.2201C13.4968 18.3214 13.3204 18.4656 13.2291 18.3126C13.2008 18.1775 13.1331 18.0186 13.0595 18.2332C13.0091 18.385 12.8471 18.4967 12.6905 18.4302C12.6047 18.3601 12.7592 18.1008 12.65 18.1192C12.4868 18.2271 12.392 18.495 12.1642 18.4736C12.0758 18.3743 12.2179 18.2061 12.1209 18.0959C12.0064 18.2429 11.8794 18.4581 11.6813 18.4736C11.5856 18.396 11.6851 18.1735 11.624 18.1406C11.4208 18.2625 11.2063 18.4797 10.9508 18.4117C11.0504 18.0307 11.4665 17.8971 11.8165 17.8674C12.4187 17.7933 13.0521 17.9294 13.6315 17.7121C13.7251 17.6551 13.9519 17.5743 13.8711 17.4422C13.7996 17.3379 14.0572 17.3787 14.082 17.2569C14.0666 17.1025 14.2002 17.1238 14.3307 17.1103C14.9157 17.085 15.4936 17.2082 16.0769 17.2292C16.121 17.5134 15.8057 17.7129 15.5519 17.6252C15.4306 17.6448 15.2488 17.3464 15.2845 17.5635C15.26 17.6774 15.2771 17.8279 15.173 17.904M10.1954 17.3221C10.3309 17.446 10.4258 17.2987 10.5524 17.2449C10.977 17.0989 11.3475 16.8436 11.7127 16.5886C11.934 16.4055 12.1259 16.168 12.4231 16.1086C13.0028 15.9334 13.619 15.9546 14.201 15.7929C14.6441 15.1861 15.3968 14.9697 16.0273 14.6209C16.1689 14.577 16.2236 14.4604 16.2688 14.3318C16.5095 13.9519 16.8373 13.6152 17.2251 13.3853C17.4085 13.285 17.6274 13.2273 17.8351 13.2731C17.8202 13.5205 17.6783 13.7397 17.507 13.9108C17.6472 13.9077 17.7677 13.8192 17.9094 13.8241C17.9579 14.078 17.6838 14.2109 17.5379 14.3689C17.6192 14.3878 17.9304 14.4114 17.7608 14.4928C17.5447 14.6428 17.2979 14.7457 17.0983 14.9199C17.2824 14.953 17.3034 14.9921 17.1162 15.0587C17.0149 15.1274 16.82 15.1514 16.8012 15.2852C16.9403 15.3707 16.7371 15.4555 16.6588 15.4833C16.509 15.5182 16.3517 15.5833 16.5506 15.6971C16.4754 15.8108 16.3139 15.8351 16.1821 15.8238C16.2221 15.9527 16.28 16.0969 16.1127 16.1538C15.7377 16.4372 15.2976 16.6434 14.8263 16.6906C15.4151 16.7358 16.0216 16.6265 16.5248 16.3063C16.5912 16.2277 16.9396 16.1433 16.7447 16.0773C16.653 16.0391 16.4564 15.9967 16.4431 15.9268C16.7156 15.7586 17.059 15.8185 17.3522 15.7186C17.3598 15.6236 17.1292 15.65 17.0432 15.6284C16.8382 15.6116 16.8502 15.5593 17.0479 15.5399C17.298 15.4737 17.5813 15.4607 17.7917 15.2976C17.6204 15.2182 17.4049 15.2881 17.2222 15.2233C17.532 15.0877 17.8976 15.0741 18.1756 14.8704C18.3022 14.7295 18.0133 14.7735 17.9292 14.7769C17.7576 14.8068 17.6782 14.7247 17.8732 14.6534C18.2061 14.4079 18.6276 14.2485 18.8614 13.8926C18.9168 13.813 18.9918 13.573 18.8152 13.6593C18.5828 13.7366 18.3784 13.9977 18.1137 13.917C18.6353 13.5127 19.1316 13.0525 19.4881 12.493C19.5065 12.3317 19.2533 12.3142 19.1873 12.4409C18.8522 12.7638 18.5489 13.1449 18.1199 13.3474C18.5308 12.9508 18.8705 12.4812 19.1669 11.9945C19.2305 11.8497 19.4012 11.6756 19.3085 11.5149C19.1591 11.3912 18.9722 11.5044 18.8946 11.6524C18.6341 11.9925 18.4363 12.3894 18.1013 12.6664C18.3946 12.1067 18.6982 11.5109 18.7056 10.8653C18.7047 10.7324 18.678 10.5366 18.4975 10.5614C18.3545 10.5871 18.3884 10.8013 18.3294 10.9096C18.1996 11.3506 18.1386 11.8283 17.8722 12.2144C17.9322 11.8561 18.037 11.4824 17.9565 11.1205C17.9189 10.9588 17.6577 11.0284 17.6914 11.1884C17.3793 12.7691 16.3187 14.1515 14.9316 14.9512C14.2965 15.3105 13.5871 15.5422 12.8653 15.6472C12.6712 15.6897 12.4612 15.6648 12.2756 15.731C11.8259 16.0758 11.5537 16.6527 10.9843 16.8334C10.7292 16.9602 10.3964 16.986 10.214 17.223C10.1982 17.2533 10.1948 17.2885 10.1954 17.3221Z" fill="#FFEC2D"/>
<path d="M11.8994 15.7186C11.8154 15.8711 11.766 16.0464 11.658 16.1829C11.333 15.8872 10.8619 15.897 10.4497 15.8773C10.1094 15.8591 9.73942 15.8277 9.47617 15.5851C9.19923 15.3582 8.97318 15.0637 8.66372 14.8796C8.38126 14.8028 8.09653 14.7067 7.86944 14.5131C7.38416 14.1175 7.10624 13.5306 6.63205 13.1227C6.54164 13.0337 6.43503 12.9648 6.33375 12.8893C6.23751 12.9127 6.28107 13.1204 6.1633 13.0146C6.09922 12.969 5.93895 12.9645 5.9245 13.0282C6.06949 13.2192 6.21462 13.4374 6.2347 13.6817C6.13582 13.6919 5.96002 13.6608 5.91102 13.6977C6.04232 13.8945 6.21063 14.069 6.40186 14.208C6.31014 14.2227 6.12939 14.2147 6.09423 14.2517C6.28405 14.4064 6.48759 14.5645 6.73616 14.6042C6.78704 14.6713 6.66176 14.8008 6.76712 14.858C6.8282 14.883 7.02978 14.9248 6.89094 14.9942C6.79566 15.0584 6.83101 15.2081 6.95286 15.2047C7.0299 15.2441 7.20286 15.2537 7.2164 15.3218C7.14812 15.3913 6.93565 15.4737 7.11649 15.5388C7.28542 15.6325 7.4781 15.6933 7.67101 15.7C7.57419 15.7815 7.45491 15.8277 7.35526 15.9043C7.80046 16.1654 8.29398 16.337 8.78166 16.5024C8.97582 16.5673 9.17223 16.6277 9.3735 16.6658C8.78866 16.6321 8.22339 16.4589 7.69074 16.2219C7.41466 16.1009 7.13672 15.9839 6.85378 15.8796C6.97784 15.815 7.12134 15.7993 7.25 15.7434C6.98293 15.6899 6.69116 15.6723 6.45639 15.5255C6.49239 15.4613 6.62878 15.4583 6.70422 15.4256C6.84608 15.3916 6.93409 15.3504 6.73405 15.338C6.53233 15.2833 6.30097 15.3079 6.1232 15.1862C6.13465 15.1132 6.3207 15.1386 6.39646 15.1071C6.49189 15.0907 6.59797 15.077 6.67422 15.0128C6.36236 14.8835 5.95446 14.9751 5.71018 14.6997C5.65386 14.5948 5.88512 14.6793 5.95098 14.6618C6.11833 14.6618 6.29818 14.715 6.45754 14.6476C6.00313 14.4481 5.51638 14.2613 5.16982 13.8923C5.13135 13.8329 5.01606 13.6709 5.10908 13.6508C5.37882 13.6865 5.57406 13.9809 5.86258 13.9351C5.90091 13.8834 5.69497 13.7987 5.64356 13.7249C5.22289 13.3639 4.8146 12.9721 4.51976 12.4993C4.49948 12.3414 4.74769 12.3177 4.81304 12.4397C5.13476 12.7495 5.42538 13.1111 5.82608 13.3227C5.96826 13.3916 5.74443 13.2411 5.71462 13.1865C5.34438 12.7565 4.99191 12.3025 4.73314 11.7961C4.68682 11.7048 4.61007 11.5396 4.74865 11.4911C4.8872 11.4216 5.02467 11.5162 5.09492 11.6352C5.36713 11.9785 5.56743 12.3866 5.90653 12.6726C5.61764 12.112 5.30919 11.5219 5.30173 10.8768C5.30852 10.7517 5.31656 10.5625 5.48614 10.5677C5.62854 10.5461 5.60605 10.7284 5.6527 10.8153C5.79301 11.2892 5.85418 11.8022 6.13563 12.2207C6.07347 11.8691 5.98196 11.507 6.04275 11.1496C6.05677 11.0322 6.18889 10.9967 6.27512 11.0677C6.34484 11.2383 6.35936 11.449 6.42289 11.6315C6.78433 12.8679 7.59589 13.9554 8.65347 14.6852C9.52448 15.2826 10.5582 15.6392 11.6132 15.7014C11.7084 15.7097 11.8041 15.7126 11.8995 15.7184" fill="#FFEC2D"/>
<path d="M10.5603 17.3578C10.5916 17.3578 10.6171 17.3324 10.6171 17.301C10.6171 17.2696 10.5916 17.2442 10.5603 17.2442C10.5289 17.2442 10.5034 17.2696 10.5034 17.301C10.5034 17.3324 10.5289 17.3578 10.5603 17.3578Z" fill="#FFEC2D"/>
<path d="M10.5554 17.3151C10.5682 17.3151 10.5786 17.3047 10.5786 17.2919C10.5786 17.2791 10.5682 17.2687 10.5554 17.2687C10.5427 17.2687 10.5323 17.2791 10.5323 17.2919C10.5323 17.3047 10.5427 17.3151 10.5554 17.3151Z" fill="#FFEC2D" stroke="#FFEC2D" stroke-width="0.1905"/>
</g>
<defs>
<clipPath id="clip0_25_3787">
<rect width="24" height="24" rx="12" fill="white"/>
</clipPath>
</defs>
</svg>
