<svg width="24" height="24" viewBox="0 0 24 24" fill="none" xmlns="http://www.w3.org/2000/svg">
<path d="M12 24C18.6274 24 24 18.6274 24 12C24 5.37258 18.6274 0 12 0C5.37258 0 0 5.37258 0 12C0 18.6274 5.37258 24 12 24Z" fill="#F0F0F0"/>
<path d="M11.4774 12H23.9991C23.9991 10.9168 23.8547 9.86769 23.5857 8.86954H11.4774V12Z" fill="#CC0000"/>
<path d="M11.4774 5.73913H22.2378C21.5032 4.54044 20.5641 3.48092 19.4689 2.60867H11.4774V5.73913Z" fill="#CC0000"/>
<path d="M12.0003 24C14.8245 24 17.4203 23.0239 19.4702 21.3913H4.53046C6.58035 23.0239 9.17614 24 12.0003 24Z" fill="#CC0000"/>
<path d="M1.7604 18.2609H22.2378C22.8276 17.2986 23.2849 16.2467 23.5857 15.1304H0.412506C0.713303 16.2467 1.17066 17.2986 1.7604 18.2609Z" fill="#CC0000"/>
<path d="M12 12C12 5.37262 12 4.59131 12 0C5.37262 0 0 5.37262 0 12H12Z" fill="#000066"/>
<path d="M7.97863 10.2717C6.33979 10.2717 5.01126 8.94314 5.01126 7.30435C5.01126 5.66555 6.33984 4.33697 7.97863 4.33697C8.48962 4.33697 8.97042 4.46621 9.39018 4.69364C8.73168 4.04972 7.83112 3.65222 6.83732 3.65222C4.82034 3.65222 3.18515 5.28736 3.18515 7.30439C3.18515 9.32142 4.82034 10.9566 6.83732 10.9566C7.83112 10.9566 8.73168 10.5591 9.39018 9.91514C8.97042 10.1425 8.48967 10.2717 7.97863 10.2717Z" fill="#FFD500"/>
<path d="M8.81568 5.21738L9.3425 6.31903L10.5322 6.04416L9.99946 7.14286L10.9563 7.90163L9.76499 8.17017L9.76832 9.39131L8.81568 8.62734L7.86299 9.39131L7.86627 8.17017L6.67499 7.90163L7.6318 7.14286L7.09897 6.04416L8.2888 6.31903L8.81568 5.21738Z" fill="#FFD500"/>
</svg>
