<svg width="24" height="24" viewBox="0 0 24 24" fill="none" xmlns="http://www.w3.org/2000/svg">
<path d="M12 24C18.6274 24 24 18.6274 24 12C24 5.37258 18.6274 0 12 0C5.37258 0 0 5.37258 0 12C0 18.6274 5.37258 24 12 24Z" fill="#F0F0F0"/>
<path d="M0.412506 15.1304C1.10682 17.7066 2.63705 19.9395 4.69477 21.5205V15.1304H0.412506Z" fill="#BA0C2F"/>
<path d="M10.957 23.9543C11.301 23.9839 11.6489 24 12.0005 24C17.5448 24 22.2101 20.2396 23.5871 15.1304H10.957V23.9543Z" fill="#BA0C2F"/>
<path d="M23.5871 8.86954C22.2101 3.76036 17.5448 0 12.0005 0C11.6489 0 11.301 0.0160312 10.957 0.0456562V8.86954H23.5871Z" fill="#BA0C2F"/>
<path d="M4.69477 2.47943C2.63705 4.06052 1.10682 6.29332 0.412506 8.86952H4.69477V2.47943Z" fill="#BA0C2F"/>
<path d="M23.8984 10.4348H9.39136L9.39131 0.285217C8.28234 0.531123 7.23098 0.929701 6.26086 1.45906V10.4347V10.4347H0.101578C0.0347813 10.9471 0 11.4695 0 12C0 12.5305 0.0347813 13.0528 0.101578 13.5652H6.26081H6.26086V22.5408C7.23098 23.0702 8.28234 23.4688 9.39131 23.7147V13.5653V13.5652H23.8984C23.9651 13.0528 24 12.5305 24 12C24 11.4695 23.9651 10.9471 23.8984 10.4348Z" fill="#004699"/>
</svg>
