<svg width="24" height="24" viewBox="0 0 24 24" fill="none" xmlns="http://www.w3.org/2000/svg">
<g clip-path="url(#clip0_2003_5019)">
<path fill-rule="evenodd" clip-rule="evenodd" d="M12 24C18.6274 24 24 18.6274 24 12C24 5.37258 18.6274 0 12 0C5.37258 0 0 5.37258 0 12C0 18.6274 5.37258 24 12 24ZM12 1.67442C11.1782 1.67442 10.2543 2.42788 9.50356 4.40404C9.14061 5.35941 8.8559 6.51521 8.66286 7.81395H15.3371C15.1441 6.51521 14.8594 5.35941 14.4964 4.40404C13.7457 2.42788 12.8218 1.67442 12 1.67442ZM7.9383 3.80939C7.50296 4.95528 7.17886 6.316 6.97129 7.81395H2.55818C3.72497 5.18611 5.95663 3.13594 8.70545 2.21115C8.40833 2.70021 8.15355 3.2428 7.9383 3.80939ZM6.79215 9.48837H1.98202C1.78109 10.2924 1.67442 11.1337 1.67442 12C1.67442 12.8663 1.78109 13.7076 1.98202 14.5116H6.79215C6.7294 13.6995 6.69767 12.8589 6.69767 12C6.69767 11.1411 6.7294 10.3005 6.79215 9.48837ZM6.97129 16.186H2.55818C3.72497 18.8139 5.95663 20.8641 8.70545 21.7888C8.40833 21.2998 8.15355 20.7572 7.9383 20.1906C7.50296 19.0447 7.17886 17.684 6.97129 16.186ZM8.66286 16.186H15.3371C15.1441 17.4848 14.8594 18.6406 14.4964 19.596C13.7457 21.5721 12.8218 22.3256 12 22.3256C11.1782 22.3256 10.2543 21.5721 9.50356 19.596C9.14061 18.6406 8.8559 17.4848 8.66286 16.186ZM15.5281 14.5116H8.47185C8.40618 13.7096 8.37209 12.8689 8.37209 12C8.37209 11.1311 8.40618 10.2904 8.47185 9.48837H15.5281C15.5938 10.2904 15.6279 11.1311 15.6279 12C15.6279 12.8689 15.5938 13.7096 15.5281 14.5116ZM17.0287 16.186C16.8211 17.684 16.497 19.0447 16.0617 20.1906C15.8465 20.7572 15.5917 21.2998 15.2945 21.7888C18.0434 20.8641 20.275 18.8139 21.4418 16.186H17.0287ZM22.018 14.5116H17.2079C17.2706 13.6995 17.3023 12.8589 17.3023 12C17.3023 11.1411 17.2706 10.3005 17.2079 9.48837H22.018C22.2189 10.2924 22.3256 11.1337 22.3256 12C22.3256 12.8663 22.2189 13.7076 22.018 14.5116ZM15.2945 2.21115C18.0434 3.13594 20.275 5.18611 21.4418 7.81395H17.0287C16.8211 6.316 16.497 4.95528 16.0617 3.80939C15.8465 3.2428 15.5917 2.70021 15.2945 2.21115Z" fill="#0D81FF"/>
</g>
<defs>
<clipPath id="clip0_2003_5019">
<rect width="24" height="24" fill="white"/>
</clipPath>
</defs>
</svg>
