<svg width="24" height="24" viewBox="0 0 24 24" fill="none" xmlns="http://www.w3.org/2000/svg">
<path opacity="0.2" d="M17.6118 21.4276H6.38817C4.16078 21.4276 2.28479 19.763 2.01985 17.5514L1.00953 9.11809C0.882188 8.0551 2.0571 7.32965 2.95041 7.91969L4.83968 9.16756C6.12583 10.0171 7.86658 9.51976 8.50987 8.11905L10.6638 3.4291C10.9036 2.907 11.4255 2.57237 12 2.57237C12.5745 2.57237 13.0965 2.907 13.3362 3.4291L15.4901 8.11905C16.1334 9.51976 17.8742 10.0171 19.1603 9.16756L21.0496 7.9197C21.9429 7.32966 23.1178 8.05512 22.9905 9.11811L21.9801 17.5514C21.7151 19.763 19.8392 21.4276 17.6118 21.4276Z" fill="url(#paint0_linear_15264_104542)"/>
<path d="M17.6118 21.4276H6.38817C4.16078 21.4276 2.28479 19.763 2.01985 17.5514L1.00953 9.11809C0.882188 8.0551 2.0571 7.32965 2.95041 7.91969L4.83968 9.16756C6.12583 10.0171 7.86658 9.51976 8.50987 8.11905L10.6638 3.4291C10.9036 2.907 11.4255 2.57237 12 2.57237C12.5745 2.57237 13.0965 2.907 13.3362 3.4291L15.4901 8.11905C16.1334 9.51976 17.8742 10.0171 19.1603 9.16756L21.0496 7.9197C21.9429 7.32966 23.1178 8.05512 22.9905 9.11811L21.9801 17.5514C21.7151 19.763 19.8392 21.4276 17.6118 21.4276Z" stroke="#0D81FF" stroke-width="1.8"/>
<path d="M12 13.8855V17.0281" stroke="#0D81FF" stroke-width="1.8" stroke-linecap="round"/>
<defs>
<linearGradient id="paint0_linear_15264_104542" x1="12" y1="2.57237" x2="12" y2="21.4276" gradientUnits="userSpaceOnUse">
<stop stop-color="white" stop-opacity="0.1"/>
<stop offset="0.2" stop-color="white" stop-opacity="0.5"/>
<stop offset="0.5" stop-color="white" stop-opacity="0.9"/>
</linearGradient>
</defs>
</svg>
