<svg width="24" height="24" viewBox="0 0 24 24" fill="none" xmlns="http://www.w3.org/2000/svg">
<path d="M0.566624 8.34788C0.199031 9.49951 -4.68666e-05 10.7264 8.27599e-09 11.9999C-4.68666e-05 13.2735 0.199078 14.5005 0.566671 15.6521L12 16.1739L23.4333 15.6522C23.8008 14.5005 24 13.2735 24 12C24 10.7264 23.8009 9.49951 23.4333 8.34783L12 7.82611L0.566624 8.34788Z" fill="#F0F0F0"/>
<path d="M23.434 8.34783L12.0006 7.82611L0.567293 8.34783C0.458356 8.68927 0.364559 9.03741 0.28595 9.39132H23.7152C23.6366 9.03737 23.5429 8.68918 23.434 8.34783Z" fill="#D80027"/>
<path d="M0.28595 14.6086C0.364465 14.9626 0.458262 15.3106 0.567199 15.6521L0.568324 15.6521L12.0005 16.1739L23.4338 15.6521C23.5427 15.3107 23.6365 14.9626 23.7151 14.6086H0.28595Z" fill="#D80027"/>
<path d="M12.0005 24C17.3543 24 21.8885 20.4936 23.4338 15.6522H0.5672C2.11243 20.4936 6.64673 24 12.0005 24Z" fill="#6DA544"/>
<path d="M12.0005 4.69974e-10C6.64673 4.68756e-05 2.11252 3.50645 0.5672 8.34786L23.4338 8.34791C21.8886 3.5064 17.3544 -4.68747e-05 12.0005 4.69974e-10Z" fill="#338AF3"/>
<path d="M5.48278 4.95655C5.48278 3.83263 6.27267 2.89372 7.32749 2.66337C7.1654 2.62794 6.99717 2.60876 6.82439 2.60876C5.52773 2.60876 4.47656 3.65989 4.47656 4.9566C4.47656 6.25331 5.52764 7.30444 6.82439 7.30444C6.99717 7.30444 7.16535 7.28522 7.32749 7.24983C6.27272 7.01939 5.48278 6.08048 5.48278 4.95655Z" fill="#F0F0F0"/>
<path d="M8.71707 6.02374L8.87598 6.51289H9.39029L8.97423 6.81523L9.13314 7.30437L8.71707 7.00207L8.30092 7.30437L8.45987 6.81523L8.04376 6.51289H8.55807L8.71707 6.02374Z" fill="#F0F0F0"/>
<path d="M10.3576 6.02374L10.5166 6.51289H11.0309L10.6148 6.81523L10.7737 7.30437L10.3576 7.00207L9.9415 7.30437L10.1004 6.81523L9.68439 6.51289H10.1987L10.3576 6.02374Z" fill="#F0F0F0"/>
<path d="M11.9983 6.02374L12.1572 6.51289H12.6716L12.2555 6.81523L12.4144 7.30437L11.9983 7.00207L11.5822 7.30437L11.7412 6.81523L11.325 6.51289H11.8394L11.9983 6.02374Z" fill="#F0F0F0"/>
<path d="M13.6413 6.02374L13.8002 6.51289H14.3145L13.8984 6.81523L14.0574 7.30437L13.6413 7.00207L13.2251 7.30437L13.3841 6.81523L12.968 6.51289H13.4823L13.6413 6.02374Z" fill="#F0F0F0"/>
<path d="M15.2818 6.02374L15.4408 6.51289H15.9551L15.539 6.81523L15.698 7.30437L15.2818 7.00207L14.8657 7.30437L15.0246 6.81523L14.6086 6.51289H15.1228L15.2818 6.02374Z" fill="#F0F0F0"/>
<path d="M10.3576 4.31622L10.5166 4.80532H11.0309L10.6148 5.10771L10.7737 5.59681L10.3576 5.29451L9.9415 5.59681L10.1004 5.10771L9.68439 4.80532H10.1987L10.3576 4.31622Z" fill="#F0F0F0"/>
<path d="M11.9983 4.31622L12.1572 4.80532H12.6716L12.2555 5.10771L12.4144 5.59681L11.9983 5.29451L11.5822 5.59681L11.7412 5.10771L11.325 4.80532H11.8394L11.9983 4.31622Z" fill="#F0F0F0"/>
<path d="M13.6413 4.31622L13.8002 4.80532H14.3145L13.8984 5.10771L14.0574 5.59681L13.6413 5.29451L13.2251 5.59681L13.3841 5.10771L12.968 4.80532H13.4823L13.6413 4.31622Z" fill="#F0F0F0"/>
<path d="M15.2818 4.31622L15.4408 4.80532H15.9551L15.539 5.10771L15.698 5.59681L15.2818 5.29451L14.8657 5.59681L15.0246 5.10771L14.6086 4.80532H15.1228L15.2818 4.31622Z" fill="#F0F0F0"/>
<path d="M11.9983 2.60864L12.1572 3.09783H12.6716L12.2555 3.40013L12.4144 3.88932L11.9983 3.58702L11.5822 3.88932L11.7412 3.40013L11.325 3.09783H11.8394L11.9983 2.60864Z" fill="#F0F0F0"/>
<path d="M13.6413 2.60864L13.8002 3.09783H14.3145L13.8984 3.40013L14.0574 3.88932L13.6413 3.58702L13.2251 3.88932L13.3841 3.40013L12.968 3.09783H13.4823L13.6413 2.60864Z" fill="#F0F0F0"/>
<path d="M15.2818 2.60864L15.4408 3.09783H15.9551L15.539 3.40013L15.698 3.88932L15.2818 3.58702L14.8657 3.88932L15.0246 3.40013L14.6086 3.09783H15.1228L15.2818 2.60864Z" fill="#F0F0F0"/>
</svg>
