<svg width="24" height="24" viewBox="0 0 24 24" fill="none" xmlns="http://www.w3.org/2000/svg">
<rect width="24" height="24" fill="#F5F5F5"/>
<path d="M-80 -285C-80 -311.187 -80 -324.281 -74.1056 -333.9C-70.8074 -339.282 -66.2822 -343.807 -60.8999 -347.106C-51.2812 -353 -38.1874 -353 -12 -353H890C916.187 -353 929.281 -353 938.9 -347.106C944.282 -343.807 948.807 -339.282 952.106 -333.9C958 -324.281 958 -311.187 958 -285V372C958 398.187 958 411.281 952.106 420.9C948.807 426.282 944.282 430.807 938.9 434.106C929.281 440 916.187 440 890 440H-12C-38.1875 440 -51.2812 440 -60.8999 434.106C-66.2822 430.807 -70.8074 426.282 -74.1056 420.9C-80 411.281 -80 398.187 -80 372V-285Z" fill="white"/>
<path d="M12 24C18.6274 24 24 18.6274 24 12C24 5.37258 18.6274 0 12 0C5.37258 0 0 5.37258 0 12C0 18.6274 5.37258 24 12 24Z" fill="#F0F0F0"/>
<path d="M4.95591 11.1304L3.65157 8.76402L4.95591 6.43475L6.26025 8.76402L4.95591 11.1304Z" fill="#A2001D"/>
<path d="M2.34731 11.1304L1.04297 8.76402L2.34731 6.43475L3.65166 8.76402L2.34731 11.1304Z" fill="#A2001D"/>
<path d="M4.95591 17.5652L3.65157 15.1988L4.95591 12.8696L6.26025 15.1988L4.95591 17.5652Z" fill="#A2001D"/>
<path d="M2.34731 17.5652L1.04297 15.1988L2.34731 12.8696L3.65166 15.1988L2.34731 17.5652Z" fill="#A2001D"/>
<path d="M6.26118 2.3293L5.8919 1.66986C5.22956 2.0623 4.60832 2.51666 4.03593 3.02497L4.95684 4.69564L6.26118 2.3293Z" fill="#A2001D"/>
<path d="M4.95722 19.3044L4.02657 20.9664C4.59844 21.4753 5.21925 21.9304 5.88131 22.3236L6.26161 21.6337L4.95722 19.3044Z" fill="#A2001D"/>
<path d="M7.30547 15.1305V23.0459C8.74776 23.6598 10.3346 24 12.0011 24C17.1607 24 21.5592 20.7435 23.2547 16.1739L7.30547 15.1305Z" fill="#007C30"/>
<path d="M23.2547 16.1739C23.7371 14.8739 24.0011 13.4678 24.0011 12C24.0011 5.37262 18.6285 0 12.0011 0C10.3348 0 8.74776 0.339984 7.30547 0.953812V16.1739H23.2547V16.1739Z" fill="#A2001D"/>
</svg>
