<svg width="24" height="24" viewBox="0 0 24 24" fill="none" xmlns="http://www.w3.org/2000/svg">
<g id="Flag Container">
<path id="Vector" d="M11.9995 24C18.6267 24 23.9991 18.6274 23.9991 12C23.9991 5.37258 18.6267 0 11.9995 0C5.37237 0 0 5.37258 0 12C0 18.6274 5.37237 24 11.9995 24Z" fill="#F0F0F0"/>
<path id="Vector_2" d="M10.9572 12C10.9572 12 3.52266 20.487 3.51562 20.4853C5.68707 22.6568 8.687 24 12.0006 24C18.6277 24 24.0001 18.6274 24.0001 12H10.9572Z" fill="#D80027"/>
<path id="Vector_3" d="M3.51457 3.51431C-1.17152 8.20059 -1.17152 15.7986 3.51457 20.4849C5.45104 18.5484 7.31346 16.6859 11.9996 11.9996L3.51457 3.51431Z" fill="#11457E"/>
</g>
</svg>
