<svg width="24" height="24" viewBox="0 0 24 24" fill="none" xmlns="http://www.w3.org/2000/svg">
<rect width="24" height="24" fill="#F5F5F5"/>
<path d="M-80 -173C-80 -199.187 -80 -212.281 -74.1056 -221.9C-70.8074 -227.282 -66.2822 -231.807 -60.8999 -235.106C-51.2812 -241 -38.1874 -241 -12 -241H890C916.187 -241 929.281 -241 938.9 -235.106C944.282 -231.807 948.807 -227.282 952.106 -221.9C958 -212.281 958 -199.187 958 -173V484C958 510.187 958 523.281 952.106 532.9C948.807 538.282 944.282 542.807 938.9 546.106C929.281 552 916.187 552 890 552H-12C-38.1875 552 -51.2812 552 -60.8999 546.106C-66.2822 542.807 -70.8074 538.282 -74.1056 532.9C-80 523.281 -80 510.187 -80 484V-173Z" fill="white"/>
<path d="M12 24C18.6274 24 24 18.6274 24 12C24 5.37258 18.6274 0 12 0C5.37258 0 0 5.37258 0 12C0 18.6274 5.37258 24 12 24Z" fill="#F0F0F0"/>
<path d="M2.47973 4.69414C1.53712 5.92053 0.826358 7.33404 0.412498 8.86962H6.65522L2.47973 4.69414Z" fill="#002776"/>
<path d="M23.5864 8.86962C23.1725 7.33409 22.4617 5.92057 21.5191 4.69418L17.3438 8.86962H23.5864Z" fill="#002776"/>
<path d="M0.412498 15.1305C0.826405 16.666 1.53717 18.0795 2.47973 19.3059L6.65508 15.1305H0.412498Z" fill="#002776"/>
<path d="M19.3067 2.48069C18.0803 1.53808 16.6668 0.827313 15.1312 0.413406V6.65608L19.3067 2.48069Z" fill="#002776"/>
<path d="M4.69453 21.5193C5.92092 22.4619 7.33444 23.1727 8.86997 23.5866V17.344L4.69453 21.5193Z" fill="#002776"/>
<path d="M8.86993 0.413406C7.33439 0.827313 5.92088 1.53808 4.69453 2.48064L8.86993 6.65603V0.413406Z" fill="#002776"/>
<path d="M15.1312 23.5866C16.6668 23.1727 18.0803 22.4619 19.3066 21.5194L15.1312 17.344V23.5866Z" fill="#002776"/>
<path d="M17.3438 15.1305L21.5191 19.3059C22.4617 18.0796 23.1725 16.666 23.5864 15.1305H17.3438Z" fill="#002776"/>
<path d="M23.8984 10.4348H13.5653H13.5653V0.101578C13.0529 0.034875 12.5305 0 12 0C11.4694 0 10.9471 0.034875 10.4348 0.101578V10.4347V10.4347H0.101578C0.034875 10.9471 0 11.4695 0 12C0 12.5306 0.034875 13.0529 0.101578 13.5652H10.4347H10.4347V23.8984C10.9471 23.9651 11.4694 24 12 24C12.5305 24 13.0529 23.9652 13.5652 23.8984V13.5653V13.5653H23.8984C23.9651 13.0529 24 12.5306 24 12C24 11.4695 23.9651 10.9471 23.8984 10.4348Z" fill="#D80027"/>
<path d="M15.1312 15.1305L20.4861 20.4853C20.7323 20.2391 20.9673 19.9817 21.1914 19.7149L16.607 15.1305H15.1312V15.1305Z" fill="#D80027"/>
<path d="M8.87048 15.1305H8.87039L3.51562 20.4853C3.76181 20.7315 4.0192 20.9665 4.28602 21.1906L8.87048 16.6061V15.1305Z" fill="#D80027"/>
<path d="M8.87035 8.86966V8.86957L3.51553 3.51471C3.26925 3.7609 3.03431 4.01829 2.81016 4.2851L7.39467 8.86962L8.87035 8.86966Z" fill="#D80027"/>
<path d="M15.1312 8.86962L20.4861 3.51472C20.2399 3.26843 19.9825 3.0335 19.7157 2.80939L15.1312 7.3939V8.86962Z" fill="#D80027"/>
</svg>
