<svg width="24" height="24" viewBox="0 0 24 24" fill="none" xmlns="http://www.w3.org/2000/svg">
<rect width="24" height="24" fill="#F5F5F5"/>
<path d="M-80 -565C-80 -591.187 -80 -604.281 -74.1056 -613.9C-70.8074 -619.282 -66.2822 -623.807 -60.8999 -627.106C-51.2812 -633 -38.1874 -633 -12 -633H890C916.187 -633 929.281 -633 938.9 -627.106C944.282 -623.807 948.807 -619.282 952.106 -613.9C958 -604.281 958 -591.187 958 -565V92C958 118.187 958 131.281 952.106 140.9C948.807 146.282 944.282 150.807 938.9 154.106C929.281 160 916.187 160 890 160H-12C-38.1875 160 -51.2812 160 -60.8999 154.106C-66.2822 150.807 -70.8074 146.282 -74.1056 140.9C-80 131.281 -80 118.187 -80 92V-565Z" fill="white"/>
<path d="M12 24C18.6274 24 24 18.6274 24 12C24 5.37258 18.6274 0 12 0C5.37258 0 0 5.37258 0 12C0 18.6274 5.37258 24 12 24Z" fill="#F0F0F0"/>
<path d="M23.8984 10.4348H9.39136L9.39131 0.285217C8.28234 0.531124 7.23098 0.929702 6.26086 1.45906V10.4347V10.4347H0.101578C0.0347813 10.9471 0 11.4695 0 12C0 12.5305 0.0347813 13.0528 0.101578 13.5652H6.26081H6.26086V22.5409C7.23098 23.0702 8.28234 23.4688 9.39131 23.7147V13.5653V13.5652H23.8984C23.9651 13.0528 24 12.5305 24 12C24 11.4695 23.9651 10.9471 23.8984 10.4348Z" fill="#004699"/>
</svg>
