<svg width="24" height="24" viewBox="0 0 24 24" fill="none" xmlns="http://www.w3.org/2000/svg">
<rect width="24" height="24" fill="#F5F5F5"/>
<path d="M-755 -397C-755 -423.187 -755 -436.281 -749.106 -445.9C-745.807 -451.282 -741.282 -455.807 -735.9 -459.106C-726.281 -465 -713.187 -465 -687 -465H215C241.187 -465 254.281 -465 263.9 -459.106C269.282 -455.807 273.807 -451.282 277.106 -445.9C283 -436.281 283 -423.187 283 -397V260C283 286.187 283 299.281 277.106 308.9C273.807 314.282 269.282 318.807 263.9 322.106C254.281 328 241.187 328 215 328H-687C-713.187 328 -726.281 328 -735.9 322.106C-741.282 318.807 -745.807 314.282 -749.106 308.9C-755 299.281 -755 286.187 -755 260V-397Z" fill="white"/>
<path d="M0.7453 16.1739C2.44082 20.7435 6.83933 24 11.9989 24C17.1585 24 21.557 20.7435 23.2525 16.1739L11.9989 15.1305L0.7453 16.1739Z" fill="#FFCE00"/>
<path d="M11.9989 0C6.83933 0 2.44082 3.2565 0.7453 7.82611L11.9989 8.86954L23.2525 7.82606C21.557 3.2565 17.1585 0 11.9989 0Z" fill="black"/>
<path d="M0.746391 7.82611C0.264047 9.12609 0 10.5322 0 12C0 13.4678 0.264047 14.8739 0.746391 16.1739H23.2537C23.736 14.8739 24 13.4678 24 12C24 10.5322 23.736 9.12609 23.2536 7.82611H0.746391Z" fill="#DA0000"/>
</svg>
