<svg width="24" height="24" viewBox="0 0 24 24" fill="none" xmlns="http://www.w3.org/2000/svg">
<rect width="24" height="24" fill="#F5F5F5"/>
<path d="M-420 -117C-420 -143.187 -420 -156.281 -414.106 -165.9C-410.807 -171.282 -406.282 -175.807 -400.9 -179.106C-391.281 -185 -378.187 -185 -352 -185H550C576.187 -185 589.281 -185 598.9 -179.106C604.282 -175.807 608.807 -171.282 612.106 -165.9C618 -156.281 618 -143.187 618 -117V540C618 566.187 618 579.281 612.106 588.9C608.807 594.282 604.282 598.807 598.9 602.106C589.281 608 576.187 608 550 608H-352C-378.187 608 -391.281 608 -400.9 602.106C-406.282 598.807 -410.807 594.282 -414.106 588.9C-420 579.281 -420 566.187 -420 540V-117Z" fill="white"/>
<path d="M0.746391 7.82611C0.264047 9.12614 0 10.5322 0 12C0 13.4678 0.264047 14.874 0.746391 16.1739L12 17.2174L23.2536 16.1739C23.736 14.874 24 13.4678 24 12C24 10.5322 23.736 9.12614 23.2536 7.82611L12 6.78262L0.746391 7.82611Z" fill="#F0F0F0"/>
<path d="M11.9989 0C6.83933 0 2.44077 3.2565 0.7453 7.82611H23.2526C21.557 3.2565 17.1585 0 11.9989 0Z" fill="#CE2939"/>
<path d="M11.9989 24C17.1585 24 21.557 20.7435 23.2525 16.1739H0.7453C2.44077 20.7435 6.83933 24 11.9989 24Z" fill="#477050"/>
</svg>
