<svg width="24" height="24" viewBox="0 0 24 24" fill="none" xmlns="http://www.w3.org/2000/svg">
<rect width="24" height="24" fill="#F5F5F5"/>
<path d="M-420 -173C-420 -199.187 -420 -212.281 -414.106 -221.9C-410.807 -227.282 -406.282 -231.807 -400.9 -235.106C-391.281 -241 -378.187 -241 -352 -241H550C576.187 -241 589.281 -241 598.9 -235.106C604.282 -231.807 608.807 -227.282 612.106 -221.9C618 -212.281 618 -199.187 618 -173V484C618 510.187 618 523.281 612.106 532.9C608.807 538.282 604.282 542.807 598.9 546.106C589.281 552 576.187 552 550 552H-352C-378.187 552 -391.281 552 -400.9 546.106C-406.282 542.807 -410.807 538.282 -414.106 532.9C-420 523.281 -420 510.187 -420 484V-173Z" fill="white"/>
<path d="M12 24C18.6274 24 24 18.6274 24 12C24 5.37258 18.6274 0 12 0C5.37258 0 0 5.37258 0 12C0 18.6274 5.37258 24 12 24Z" fill="#F0F0F0"/>
<path d="M0 12C0 5.37262 5.37262 0 12 0C18.6274 0 24 5.37262 24 12" fill="#D40026"/>
</svg>
