<svg width="24" height="24" viewBox="0 0 24 24" fill="none" xmlns="http://www.w3.org/2000/svg">
<rect width="24" height="24" fill="#F5F5F5"/>
<path d="M-420 -229C-420 -255.187 -420 -268.281 -414.106 -277.9C-410.807 -283.282 -406.282 -287.807 -400.9 -291.106C-391.281 -297 -378.187 -297 -352 -297H550C576.187 -297 589.281 -297 598.9 -291.106C604.282 -287.807 608.807 -283.282 612.106 -277.9C618 -268.281 618 -255.187 618 -229V428C618 454.187 618 467.281 612.106 476.9C608.807 482.282 604.282 486.807 598.9 490.106C589.281 496 576.187 496 550 496H-352C-378.187 496 -391.281 496 -400.9 490.106C-406.282 486.807 -410.807 482.282 -414.106 476.9C-420 467.281 -420 454.187 -420 428V-229Z" fill="white"/>
<path d="M12 24C18.6274 24 24 18.6274 24 12C24 5.37258 18.6274 0 12 0C5.37258 0 0 5.37258 0 12C0 18.6274 5.37258 24 12 24Z" fill="#F0F0F0"/>
<path d="M24.0003 12C24.0003 6.84043 20.7438 2.44191 16.1742 0.746399V23.2537C20.7438 21.5581 24.0003 17.1596 24.0003 12Z" fill="#CE2B37"/>
<path d="M0 12C0 17.1596 3.2565 21.5581 7.82611 23.2536V0.746399C3.2565 2.44191 0 6.84043 0 12Z" fill="#009246"/>
</svg>
