<svg width="24" height="24" viewBox="0 0 24 24" fill="none" xmlns="http://www.w3.org/2000/svg">
<g id="Flag Container">
<path id="Vector" d="M0 0H24V24H0V0Z" fill="#00ABC2"/>
<g id="Group">
<g id="Group_2">
<path id="Vector_2" d="M12.0119 13.3092C13.7954 13.3092 15.2411 11.8635 15.2411 10.08C15.2411 8.29659 13.7954 6.85083 12.0119 6.85083C10.2285 6.85083 8.78271 8.29659 8.78271 10.08C8.78271 11.8635 10.2285 13.3092 12.0119 13.3092Z" fill="#FFEC2D"/>
<g id="c">
<g id="b">
<path id="a" d="M12.0116 6.41064C12.2036 6.40824 12.2756 6.28824 12.2756 6.14424C12.2756 5.95224 12.0116 5.03784 12.0116 5.03784C12.0116 5.03784 11.7476 5.95224 11.7476 6.14424C11.7476 6.28824 11.8196 6.41064 12.0116 6.41064Z" fill="#FFEC2D"/>
<path id="a_2" d="M15.6814 10.0802C15.6838 10.2722 15.8038 10.3442 15.9478 10.3442C16.1398 10.3442 17.0542 10.0802 17.0542 10.0802C17.0542 10.0802 16.1398 9.81622 15.9478 9.81622C15.8038 9.81622 15.6814 9.88822 15.6814 10.0802Z" fill="#FFEC2D"/>
<path id="a_3" d="M12.0119 13.7498C11.8199 13.7522 11.7479 13.8722 11.7479 14.0162C11.7479 14.2082 12.0119 15.1226 12.0119 15.1226C12.0119 15.1226 12.2759 14.2082 12.2759 14.0162C12.2759 13.8722 12.2039 13.7498 12.0119 13.7498Z" fill="#FFEC2D"/>
<path id="a_4" d="M8.34204 10.0802C8.33964 9.88824 8.21964 9.81624 8.07564 9.81624C7.88364 9.81624 6.96924 10.0802 6.96924 10.0802C6.96924 10.0802 7.88364 10.3442 8.07564 10.3442C8.21964 10.3442 8.34204 10.2722 8.34204 10.0802Z" fill="#FFEC2D"/>
</g>
<g id="b_2">
<path id="a_5" d="M13.4158 6.68983C13.5941 6.76108 13.7066 6.67777 13.7617 6.54473C13.8351 6.36735 13.9412 5.42152 13.9412 5.42152C13.9412 5.42152 13.3473 6.16529 13.2739 6.34268C13.2188 6.47571 13.2384 6.61635 13.4158 6.68983Z" fill="#FFEC2D"/>
<path id="a_6" d="M15.4017 11.4844C15.3304 11.6627 15.4137 11.7751 15.5468 11.8302C15.7241 11.9037 16.67 12.0097 16.67 12.0097C16.67 12.0097 15.9262 11.4159 15.7488 11.3424C15.6158 11.2873 15.4751 11.307 15.4017 11.4844Z" fill="#FFEC2D"/>
<path id="a_7" d="M10.6071 13.4703C10.4288 13.3991 10.3164 13.4824 10.2613 13.6154C10.1878 13.7928 10.0818 14.7386 10.0818 14.7386C10.0818 14.7386 10.6756 13.9949 10.7491 13.8175C10.8042 13.6844 10.7845 13.5438 10.6071 13.4703Z" fill="#FFEC2D"/>
<path id="a_8" d="M8.62128 8.67579C8.69254 8.49749 8.60923 8.38505 8.47619 8.32994C8.29881 8.25647 7.35298 8.15044 7.35298 8.15044C7.35298 8.15044 8.09675 8.74427 8.27413 8.81775C8.40717 8.87286 8.54781 8.85318 8.62128 8.67579Z" fill="#FFEC2D"/>
</g>
<g id="b_3">
<path id="a_9" d="M14.6066 7.48509C14.744 7.61916 14.8798 7.58522 14.9816 7.48339C15.1174 7.34763 15.5773 6.51437 15.5773 6.51437C15.5773 6.51437 14.744 6.97428 14.6083 7.11004C14.5065 7.21186 14.4708 7.34933 14.6066 7.48509Z" fill="#FFEC2D"/>
<path id="a_10" d="M14.6068 12.6747C14.4727 12.8122 14.5066 12.9479 14.6085 13.0497C14.7442 13.1855 15.5775 13.6454 15.5775 13.6454C15.5775 13.6454 15.1176 12.8122 14.9818 12.6764C14.88 12.5746 14.7425 12.5389 14.6068 12.6747Z" fill="#FFEC2D"/>
<path id="a_11" d="M9.41685 12.6747C9.27939 12.5406 9.14363 12.5746 9.0418 12.6764C8.90604 12.8122 8.44614 13.6454 8.44614 13.6454C8.44614 13.6454 9.27939 13.1855 9.41516 13.0497C9.51698 12.9479 9.55262 12.8105 9.41685 12.6747Z" fill="#FFEC2D"/>
<path id="a_12" d="M9.41716 7.48509C9.55123 7.34763 9.51728 7.21186 9.41546 7.11004C9.2797 6.97428 8.44644 6.51437 8.44644 6.51437C8.44644 6.51437 8.90634 7.34763 9.04211 7.48339C9.14393 7.58522 9.28139 7.62085 9.41716 7.48509Z" fill="#FFEC2D"/>
</g>
<g id="b_4">
<path id="a_13" d="M15.4021 8.67581C15.4778 8.85227 15.6162 8.87287 15.7492 8.81776C15.9266 8.74429 16.6704 8.15046 16.6704 8.15046C16.6704 8.15046 15.7245 8.25648 15.5472 8.32996C15.4141 8.38506 15.3286 8.49842 15.4021 8.67581Z" fill="#FFEC2D"/>
<path id="a_14" d="M13.4163 13.4704C13.2398 13.5461 13.2192 13.6845 13.2743 13.8175C13.3478 13.9949 13.9416 14.7387 13.9416 14.7387C13.9416 14.7387 13.8356 13.7928 13.7621 13.6155C13.707 13.4824 13.5937 13.3969 13.4163 13.4704Z" fill="#FFEC2D"/>
<path id="a_15" d="M8.62138 11.4843C8.54568 11.3079 8.40726 11.2873 8.27423 11.3424C8.09684 11.4159 7.35307 12.0097 7.35307 12.0097C7.35307 12.0097 8.2989 11.9037 8.47628 11.8302C8.60932 11.7751 8.69485 11.6617 8.62138 11.4843Z" fill="#FFEC2D"/>
<path id="a_16" d="M10.6076 6.6898C10.7841 6.6141 10.8047 6.47568 10.7496 6.34265C10.6761 6.16526 10.0823 5.42149 10.0823 5.42149C10.0823 5.42149 10.1883 6.36732 10.2618 6.5447C10.3169 6.67774 10.4302 6.76327 10.6076 6.6898Z" fill="#FFEC2D"/>
</g>
</g>
<g id="c_2">
<g id="b_5">
<path id="a_17" d="M12.7274 6.48112C12.9162 6.51622 13.0102 6.41257 13.0383 6.27134C13.0758 6.08303 12.9953 5.13469 12.9953 5.13469C12.9953 5.13469 12.5579 5.98002 12.5205 6.16833C12.4924 6.30956 12.5391 6.44366 12.7274 6.48112Z" fill="#FFEC2D"/>
<path id="a_18" d="M15.6109 10.7961C15.5758 10.9849 15.6794 11.0789 15.8206 11.107C16.009 11.1445 16.9573 11.0639 16.9573 11.0639C16.9573 11.0639 16.112 10.6266 15.9236 10.5891C15.7824 10.5611 15.6483 10.6078 15.6109 10.7961Z" fill="#FFEC2D"/>
<path id="a_19" d="M11.296 13.6793C11.1072 13.6442 11.0132 13.7478 10.9851 13.8891C10.9476 14.0774 11.0282 15.0257 11.0282 15.0257C11.0282 15.0257 11.4655 14.1804 11.503 13.9921C11.5311 13.8508 11.4843 13.7167 11.296 13.6793Z" fill="#FFEC2D"/>
<path id="a_20" d="M8.41257 9.3643C8.44768 9.17552 8.34403 9.08149 8.2028 9.0534C8.01449 9.01594 7.06615 9.09648 7.06615 9.09648C7.06615 9.09648 7.91148 9.5338 8.09979 9.57126C8.24102 9.59935 8.37512 9.55261 8.41257 9.3643Z" fill="#FFEC2D"/>
</g>
<g id="b_6">
<path id="a_21" d="M14.0501 7.02896C14.2111 7.13363 14.3376 7.07386 14.4176 6.95412C14.5243 6.79448 14.8128 5.88752 14.8128 5.88752C14.8128 5.88752 14.0852 6.50114 13.9786 6.66078C13.8986 6.78051 13.8904 6.92229 14.0501 7.02896Z" fill="#FFEC2D"/>
<path id="a_22" d="M15.0625 12.1188C14.9578 12.2798 15.0176 12.4063 15.1373 12.4863C15.2969 12.593 16.2039 12.8815 16.2039 12.8815C16.2039 12.8815 15.5903 12.154 15.4306 12.0473C15.3109 11.9673 15.1691 11.9592 15.0625 12.1188Z" fill="#FFEC2D"/>
<path id="a_23" d="M9.97238 13.1313C9.8114 13.0266 9.68487 13.0864 9.60487 13.2061C9.4982 13.3657 9.20969 14.2727 9.20969 14.2727C9.20969 14.2727 9.93721 13.6591 10.0439 13.4994C10.1239 13.3797 10.132 13.2379 9.97238 13.1313Z" fill="#FFEC2D"/>
<path id="a_24" d="M8.95999 8.04141C9.06466 7.88043 9.00489 7.7539 8.88515 7.6739C8.72551 7.56723 7.81855 7.27872 7.81855 7.27872C7.81855 7.27872 8.43217 8.00624 8.59181 8.11291C8.71154 8.19292 8.85332 8.20105 8.95999 8.04141Z" fill="#FFEC2D"/>
</g>
<g id="b_7">
<path id="a_25" d="M15.0628 8.0414C15.1715 8.19971 15.3113 8.19291 15.431 8.1129C15.5907 8.00623 16.2043 7.27871 16.2043 7.27871C16.2043 7.27871 15.2973 7.56722 15.1377 7.67389C15.0179 7.75389 14.9562 7.88176 15.0628 8.0414Z" fill="#FFEC2D"/>
<path id="a_26" d="M14.0505 13.1313C13.8922 13.2399 13.899 13.3797 13.979 13.4994C14.0857 13.6591 14.8132 14.2727 14.8132 14.2727C14.8132 14.2727 14.5247 13.3657 14.418 13.2061C14.338 13.0864 14.2102 13.0246 14.0505 13.1313Z" fill="#FFEC2D"/>
<path id="a_27" d="M8.96059 12.1188C8.85193 11.9605 8.71215 11.9673 8.59242 12.0473C8.43278 12.154 7.81915 12.8815 7.81915 12.8815C7.81915 12.8815 8.72612 12.593 8.88576 12.4863C9.00549 12.4063 9.06726 12.2785 8.96059 12.1188Z" fill="#FFEC2D"/>
<path id="a_28" d="M9.97292 7.02895C10.1312 6.92029 10.1244 6.78051 10.0444 6.66078C9.93775 6.50113 9.21023 5.88751 9.21023 5.88751C9.21023 5.88751 9.49874 6.79448 9.60541 6.95412C9.68541 7.07385 9.81328 7.13562 9.97292 7.02895Z" fill="#FFEC2D"/>
</g>
<g id="b_8">
<path id="a_29" d="M15.6104 9.36433C15.6502 9.55218 15.7819 9.59938 15.9231 9.57129C16.1115 9.53383 16.9568 9.09651 16.9568 9.09651C16.9568 9.09651 16.0084 9.01598 15.8201 9.05343C15.6789 9.08153 15.5729 9.17602 15.6104 9.36433Z" fill="#FFEC2D"/>
<path id="a_30" d="M12.7272 13.6793C12.5393 13.7191 12.4921 13.8509 12.5202 13.9921C12.5577 14.1804 12.995 15.0257 12.995 15.0257C12.995 15.0257 13.0755 14.0774 13.0381 13.8891C13.01 13.7479 12.9155 13.6419 12.7272 13.6793Z" fill="#FFEC2D"/>
<path id="a_31" d="M8.41211 10.7961C8.37229 10.6083 8.24055 10.5611 8.09932 10.5892C7.91101 10.6266 7.06568 11.0639 7.06568 11.0639C7.06568 11.0639 8.01402 11.1445 8.20233 11.107C8.34356 11.0789 8.44956 10.9844 8.41211 10.7961Z" fill="#FFEC2D"/>
<path id="a_32" d="M11.2953 6.48114C11.4831 6.44133 11.5304 6.30958 11.5023 6.16835C11.4648 5.98004 11.0275 5.13471 11.0275 5.13471C11.0275 5.13471 10.9469 6.08305 10.9844 6.27136C11.0125 6.41259 11.107 6.51859 11.2953 6.48114Z" fill="#FFEC2D"/>
</g>
</g>
</g>
<g id="Group_3">
<path id="Vector_3" d="M11.4352 17.075C11.3488 17.0798 11.2648 17.0909 11.1824 17.1173C11.0696 17.1326 10.9616 17.1717 10.8496 17.1902L10.8048 17.1974L10.7296 17.2046C10.7344 17.2253 10.7376 17.2461 10.7376 17.267C10.7376 17.2886 10.7352 17.3093 10.7296 17.327C10.7248 17.3438 10.7096 17.3645 10.6976 17.3774C10.6816 17.3949 10.6648 17.4101 10.6448 17.4197C10.6256 17.4293 10.604 17.4333 10.5824 17.435C10.5608 17.4357 10.5384 17.435 10.5176 17.4269C10.496 17.4197 10.476 17.4062 10.4576 17.3901C10.4355 17.3956 10.4131 17.3996 10.3904 17.4021C10.368 17.4045 10.3472 17.4045 10.3272 17.4021C10.3048 17.3957 10.2816 17.3885 10.26 17.3798C10.2383 17.3707 10.2174 17.3598 10.1976 17.3469C10.116 17.3949 10.0248 17.4405 9.97522 17.5245C9.94724 17.5629 9.94162 17.6069 9.93524 17.6525C9.93123 17.7086 9.94563 17.7677 9.96963 17.8197C9.97844 17.8349 9.98564 17.7645 10.0128 17.7549C10.0584 17.7173 10.1152 17.6901 10.1728 17.675C10.2216 17.6501 10.2152 17.6765 10.1952 17.7149C10.1904 17.735 10.1632 17.8109 10.2 17.7725C10.3624 17.7005 10.5424 17.6861 10.7176 17.6726C10.972 17.6462 11.2272 17.6405 11.4824 17.6373L12.2024 17.6525C12.3168 17.6558 12.432 17.6813 12.5448 17.6621C12.572 17.6549 12.6144 17.6534 12.6304 17.6373C12.5792 17.6078 12.5192 17.6069 12.4624 17.5997H12.0048C11.8776 17.5869 11.7448 17.5853 11.6248 17.5373C11.5928 17.5245 11.5632 17.4941 11.5328 17.5269C11.4872 17.543 11.4384 17.5541 11.3904 17.5574C11.3064 17.5637 11.2224 17.5461 11.1448 17.5149C11.2008 17.4374 11.268 17.3693 11.3296 17.2973C11.28 17.2893 11.232 17.279 11.1824 17.267C11.2696 17.207 11.3504 17.1389 11.4352 17.075Z" fill="#FFEC2D"/>
<path id="Vector_4" d="M15.173 17.904C14.9991 18.0084 14.8664 17.8233 14.7211 17.7678C14.6173 17.8242 14.6076 18.0128 14.5106 18.1021C14.3945 18.2342 14.2523 18.0652 14.2629 17.935C14.1242 18.0519 14.054 18.3171 13.8296 18.2817C13.7232 18.1949 13.6443 18.0128 13.563 18.2201C13.4968 18.3215 13.3204 18.4657 13.229 18.3126C13.2008 18.1775 13.133 18.0186 13.0595 18.2332C13.0091 18.385 12.8471 18.4967 12.6904 18.4303C12.6046 18.3601 12.7592 18.1008 12.65 18.1193C12.4868 18.2271 12.3919 18.4951 12.1642 18.4736C12.0758 18.3743 12.2179 18.2061 12.1209 18.096C12.0064 18.2429 11.8793 18.4581 11.6813 18.4736C11.5856 18.396 11.6851 18.1736 11.6239 18.1406C11.4207 18.2625 11.2063 18.4797 10.9507 18.4117C11.0503 18.0308 11.4665 17.8971 11.8165 17.8674C12.4186 17.7934 13.0521 17.9294 13.6315 17.7121C13.7251 17.6552 13.9519 17.5744 13.8711 17.4423C13.7996 17.3379 14.0572 17.3787 14.0819 17.2569C14.0666 17.1026 14.2002 17.1238 14.3307 17.1103C14.9157 17.0851 15.4936 17.2083 16.0769 17.2292C16.1209 17.5134 15.8057 17.713 15.5518 17.6252C15.4306 17.6449 15.2488 17.3464 15.2844 17.5635C15.26 17.6775 15.2771 17.828 15.173 17.9041M10.1954 17.3221C10.3308 17.4461 10.4258 17.2988 10.5524 17.2449C10.977 17.0989 11.3475 16.8437 11.7127 16.5887C11.934 16.4055 12.1258 16.1681 12.423 16.1087C13.0028 15.9334 13.619 15.9547 14.201 15.7929C14.6441 15.1862 15.3968 14.9697 16.0273 14.621C16.1689 14.577 16.2236 14.4605 16.2688 14.3318C16.5094 13.9519 16.8373 13.6153 17.2251 13.3853C17.4085 13.285 17.6274 13.2273 17.8351 13.2732C17.8202 13.5205 17.6783 13.7398 17.507 13.9108C17.6472 13.9078 17.7677 13.8192 17.9094 13.8242C17.9579 14.078 17.6838 14.2109 17.5379 14.369C17.6191 14.3879 17.9304 14.4114 17.7608 14.4928C17.5446 14.6428 17.2978 14.7458 17.0983 14.92C17.2824 14.953 17.3034 14.9922 17.1162 15.0587C17.0149 15.1274 16.82 15.1514 16.8012 15.2852C16.9402 15.3707 16.7371 15.4556 16.6588 15.4833C16.509 15.5182 16.3516 15.5833 16.5506 15.6971C16.4753 15.8108 16.3138 15.8351 16.1821 15.8238C16.222 15.9527 16.2799 16.0969 16.1127 16.1538C15.7377 16.4372 15.2976 16.6434 14.8263 16.6906C15.4151 16.7359 16.0216 16.6266 16.5248 16.3063C16.5912 16.2278 16.9395 16.1434 16.7447 16.0773C16.653 16.0392 16.4563 15.9968 16.443 15.9268C16.7156 15.7587 17.059 15.8185 17.3522 15.7186C17.3597 15.6237 17.1291 15.6501 17.0432 15.6285C16.8381 15.6117 16.8502 15.5594 17.0479 15.54C17.298 15.4737 17.5813 15.4607 17.7917 15.2976C17.6204 15.2182 17.4049 15.2881 17.2221 15.2233C17.532 15.0877 17.8975 15.0741 18.1755 14.8704C18.3022 14.7295 18.0133 14.7735 17.9291 14.777C17.7575 14.8069 17.6782 14.7247 17.8732 14.6534C18.2061 14.408 18.6276 14.2485 18.8614 13.8927C18.9168 13.813 18.9918 13.573 18.8151 13.6593C18.5828 13.7366 18.3784 13.9978 18.1137 13.917C18.6352 13.5127 19.1316 13.0525 19.4881 12.4931C19.5065 12.3317 19.2532 12.3143 19.1873 12.4409C18.8522 12.7638 18.5489 13.145 18.1198 13.3474C18.5307 12.9508 18.8705 12.4812 19.1669 11.9945C19.2304 11.8497 19.4012 11.6756 19.3085 11.5149C19.1591 11.3912 18.9722 11.5044 18.8946 11.6524C18.6341 11.9925 18.4363 12.3894 18.1013 12.6664C18.3946 12.1067 18.6982 11.5109 18.7056 10.8653C18.7047 10.7324 18.678 10.5367 18.4975 10.5615C18.3544 10.5871 18.3884 10.8013 18.3294 10.9096C18.1995 11.3506 18.1386 11.8283 17.8722 12.2145C17.9321 11.8561 18.037 11.4825 17.9565 11.1206C17.9189 10.9588 17.6577 11.0284 17.6913 11.1885C17.3793 12.7691 16.3187 14.1515 14.9316 14.9512C14.2965 15.3105 13.587 15.5422 12.8653 15.6472C12.6711 15.6897 12.4611 15.6648 12.2756 15.731C11.8259 16.0758 11.5536 16.6528 10.9843 16.8334C10.7291 16.9603 10.3964 16.986 10.214 17.223C10.1982 17.2533 10.1948 17.2885 10.1954 17.3221Z" fill="#FFEC2D"/>
<path id="Vector_5" d="M11.8994 15.7186C11.8154 15.8711 11.766 16.0464 11.658 16.1829C11.333 15.8872 10.8619 15.897 10.4496 15.8773C10.1094 15.8591 9.73939 15.8277 9.47614 15.5851C9.1992 15.3582 8.97315 15.0637 8.66369 14.8796C8.38123 14.8028 8.0965 14.7067 7.86941 14.5131C7.38413 14.1175 7.10621 13.5306 6.63202 13.1227C6.54161 13.0337 6.435 12.9648 6.33372 12.8893C6.23748 12.9127 6.28104 13.1204 6.16327 13.0146C6.09919 12.969 5.93892 12.9645 5.92447 13.0282C6.06946 13.2192 6.21458 13.4374 6.23467 13.6817C6.13579 13.6919 5.95999 13.6608 5.91098 13.6977C6.04229 13.8945 6.2106 14.069 6.40183 14.208C6.31011 14.2227 6.12936 14.2147 6.0942 14.2517C6.28402 14.4064 6.48756 14.5645 6.73613 14.6042C6.78701 14.6713 6.66173 14.8008 6.76709 14.858C6.82817 14.883 7.02975 14.9248 6.89091 14.9942C6.79563 15.0584 6.83098 15.2081 6.95283 15.2047C7.02987 15.2441 7.20283 15.2537 7.21637 15.3218C7.14809 15.3913 6.93562 15.4737 7.11646 15.5388C7.28539 15.6325 7.47807 15.6933 7.67098 15.7C7.57416 15.7815 7.45488 15.8277 7.35523 15.9043C7.80043 16.1654 8.29395 16.337 8.78163 16.5024C8.97579 16.5673 9.1722 16.6277 9.37347 16.6658C8.78863 16.6321 8.22336 16.4589 7.69071 16.2219C7.41463 16.1009 7.13669 15.9839 6.85375 15.8796C6.97781 15.815 7.12131 15.7993 7.24997 15.7434C6.9829 15.6899 6.69113 15.6723 6.45636 15.5255C6.49236 15.4613 6.62875 15.4583 6.70418 15.4256C6.84605 15.3916 6.93406 15.3504 6.73402 15.338C6.5323 15.2833 6.30094 15.3079 6.12317 15.1862C6.13462 15.1132 6.32066 15.1386 6.39643 15.1071C6.49186 15.0907 6.59794 15.077 6.67418 15.0128C6.36233 14.8835 5.95443 14.9751 5.71015 14.6997C5.65383 14.5948 5.88509 14.6793 5.95095 14.6618C6.1183 14.6618 6.29815 14.715 6.45751 14.6476C6.0031 14.4481 5.51635 14.2613 5.16979 13.8923C5.13132 13.8329 5.01602 13.6709 5.10905 13.6508C5.37878 13.6865 5.57402 13.9809 5.86255 13.9351C5.90088 13.8834 5.69494 13.7987 5.64353 13.7249C5.22286 13.3639 4.81457 12.9721 4.51973 12.4993C4.49945 12.3414 4.74766 12.3177 4.81301 12.4397C5.13473 12.7495 5.42535 13.1111 5.82605 13.3227C5.96823 13.3916 5.7444 13.2411 5.71459 13.1865C5.34435 12.7565 4.99188 12.3025 4.73311 11.7961C4.68679 11.7048 4.61004 11.5396 4.74862 11.4911C4.88717 11.4216 5.02464 11.5162 5.09489 11.6352C5.3671 11.9785 5.5674 12.3866 5.9065 12.6726C5.61761 12.112 5.30916 11.5219 5.3017 10.8768C5.30849 10.7517 5.31653 10.5625 5.48611 10.5677C5.6285 10.5461 5.60602 10.7284 5.65267 10.8153C5.79298 11.2892 5.85415 11.8022 6.1356 12.2207C6.07344 11.8691 5.98193 11.507 6.04272 11.1496C6.05674 11.0322 6.18886 10.9967 6.27509 11.0677C6.34481 11.2383 6.35933 11.449 6.42286 11.6315C6.7843 12.8679 7.59586 13.9554 8.65344 14.6852C9.52445 15.2826 10.5581 15.6392 11.6131 15.7014C11.7084 15.7097 11.8041 15.7126 11.8995 15.7184" fill="#FFEC2D"/>
<path id="Vector_6" d="M10.5602 17.3579C10.5916 17.3579 10.617 17.3324 10.617 17.3011C10.617 17.2697 10.5916 17.2443 10.5602 17.2443C10.5289 17.2443 10.5034 17.2697 10.5034 17.3011C10.5034 17.3324 10.5289 17.3579 10.5602 17.3579Z" fill="#FFEC2D"/>
<path id="Vector_7" d="M10.5554 17.3151C10.5682 17.3151 10.5785 17.3048 10.5785 17.292C10.5785 17.2792 10.5682 17.2688 10.5554 17.2688C10.5426 17.2688 10.5322 17.2792 10.5322 17.292C10.5322 17.3048 10.5426 17.3151 10.5554 17.3151Z" fill="#FFEC2D" stroke="#FFEC2D" stroke-width="0.1905"/>
</g>
</g>
</g>
</svg>
