<svg width="24" height="24" viewBox="0 0 24 24" fill="none" xmlns="http://www.w3.org/2000/svg">
<rect width="24" height="24" fill="#F5F5F5"/>
<path d="M-420 -341C-420 -367.187 -420 -380.281 -414.106 -389.9C-410.807 -395.282 -406.282 -399.807 -400.9 -403.106C-391.281 -409 -378.187 -409 -352 -409H550C576.187 -409 589.281 -409 598.9 -403.106C604.282 -399.807 608.807 -395.282 612.106 -389.9C618 -380.281 618 -367.187 618 -341V316C618 342.187 618 355.281 612.106 364.9C608.807 370.282 604.282 374.807 598.9 378.106C589.281 384 576.187 384 550 384H-352C-378.187 384 -391.281 384 -400.9 378.106C-406.282 374.807 -410.807 370.282 -414.106 364.9C-420 355.281 -420 342.187 -420 316V-341Z" fill="white"/>
<path d="M12 24C18.6274 24 24 18.6274 24 12C24 5.37258 18.6274 0 12 0C5.37258 0 0 5.37258 0 12C0 18.6274 5.37258 24 12 24Z" fill="#F0F0F0"/>
<path d="M16.1736 12C16.1736 13.0435 14.3048 15.6522 11.9997 15.6522C9.69449 15.6522 7.82578 13.0435 7.82578 12C7.82578 9.69478 9.69449 7.82611 11.9997 7.82611C14.3048 7.82611 16.1736 9.69478 16.1736 12Z" fill="#D80027"/>
<path d="M16.1736 12C16.1736 14.3052 14.3048 16.1739 11.9997 16.1739C9.69449 16.1739 7.82578 14.3052 7.82578 12" fill="#0052B4"/>
<path d="M16.425 15.6895L17.5316 14.5829L18.2693 15.3206L17.1627 16.4272L16.425 15.6895Z" fill="black"/>
<path d="M14.5781 17.5339L15.6847 16.4273L16.4225 17.165L15.3159 18.2716L14.5781 17.5339Z" fill="black"/>
<path d="M18.6375 17.9025L19.7441 16.7959L20.4819 17.5337L19.3753 18.6403L18.6375 17.9025Z" fill="black"/>
<path d="M16.793 19.7473L17.8996 18.6407L18.6373 19.3784L17.5307 20.485L16.793 19.7473Z" fill="black"/>
<path d="M17.5312 16.7961L18.6378 15.6895L19.3756 16.4272L18.269 17.5338L17.5312 16.7961Z" fill="black"/>
<path d="M15.6867 18.6404L16.7933 17.5338L17.531 18.2716L16.4245 19.3782L15.6867 18.6404Z" fill="black"/>
<path d="M18.6422 8.31259L15.6912 5.36165L16.429 4.62391L19.3799 7.57485L18.6422 8.31259Z" fill="black"/>
<path d="M15.6914 7.57513L14.5848 6.46854L15.3225 5.73083L16.4291 6.83742L15.6914 7.57513Z" fill="black"/>
<path d="M17.5359 9.41995L16.4294 8.31335L17.1671 7.57564L18.2737 8.68224L17.5359 9.41995Z" fill="black"/>
<path d="M17.9039 5.36157L16.7973 4.25497L17.535 3.51723L18.6416 4.62383L17.9039 5.36157Z" fill="black"/>
<path d="M19.7484 7.20657L18.6418 6.09998L19.3796 5.36223L20.4862 6.46883L19.7484 7.20657Z" fill="black"/>
<path d="M4.25391 16.794L7.20485 19.7449L6.4671 20.4827L3.51616 17.5317L4.25391 16.794Z" fill="black"/>
<path d="M7.20468 17.5312L8.31128 18.6378L7.57357 19.3755L6.46697 18.2689L7.20468 17.5312Z" fill="black"/>
<path d="M5.36017 15.6871L6.46677 16.7937L5.72902 17.5315L4.62243 16.4249L5.36017 15.6871Z" fill="black"/>
<path d="M6.4664 14.5802L9.41734 17.5312L8.6796 18.2689L5.72866 15.318L6.4664 14.5802Z" fill="black"/>
<path d="M7.20468 4.25269L4.25374 7.20363L3.516 6.46588L6.46694 3.51494L7.20468 4.25269Z" fill="black"/>
<path d="M8.31094 5.35916L5.36 8.3101L4.62226 7.57236L7.5732 4.62142L8.31094 5.35916Z" fill="black"/>
<path d="M9.41953 6.46643L6.46858 9.41737L5.73087 8.67966L8.68181 5.72872L9.41953 6.46643Z" fill="black"/>
</svg>
