<svg width="24" height="24" viewBox="0 0 24 24" fill="none" xmlns="http://www.w3.org/2000/svg">
<rect width="24" height="24" fill="#F5F5F5"/>
<path d="M-80 -509C-80 -535.187 -80 -548.281 -74.1056 -557.9C-70.8074 -563.282 -66.2822 -567.807 -60.8999 -571.106C-51.2812 -577 -38.1874 -577 -12 -577H890C916.187 -577 929.281 -577 938.9 -571.106C944.282 -567.807 948.807 -563.282 952.106 -557.9C958 -548.281 958 -535.187 958 -509V148C958 174.187 958 187.281 952.106 196.9C948.807 202.282 944.282 206.807 938.9 210.106C929.281 216 916.187 216 890 216H-12C-38.1875 216 -51.2812 216 -60.8999 210.106C-66.2822 206.807 -70.8074 202.282 -74.1056 196.9C-80 187.281 -80 174.187 -80 148V-509Z" fill="white"/>
<path d="M12 24C18.6274 24 24 18.6274 24 12C24 5.37258 18.6274 0 12 0C5.37258 0 0 5.37258 0 12C0 18.6274 5.37258 24 12 24Z" fill="#F0F0F0"/>
<path d="M11.9989 0C6.83935 0 2.44083 3.2565 0.745316 7.82611H23.2526C21.557 3.2565 17.1585 0 11.9989 0Z" fill="#A2001D"/>
<path d="M11.9989 24C17.1585 24 21.557 20.7435 23.2525 16.1739H0.745316C2.44083 20.7435 6.83935 24 11.9989 24Z" fill="#21468B"/>
</svg>
