<svg width="24" height="24" viewBox="0 0 24 24" fill="none" xmlns="http://www.w3.org/2000/svg">
<rect width="24" height="24" fill="#F5F5F5"/>
<path d="M-420 -565C-420 -591.187 -420 -604.281 -414.106 -613.9C-410.807 -619.282 -406.282 -623.807 -400.9 -627.106C-391.281 -633 -378.187 -633 -352 -633H550C576.187 -633 589.281 -633 598.9 -627.106C604.282 -623.807 608.807 -619.282 612.106 -613.9C618 -604.281 618 -591.187 618 -565V92C618 118.187 618 131.281 612.106 140.9C608.807 146.282 604.282 150.807 598.9 154.106C589.281 160 576.187 160 550 160H-352C-378.187 160 -391.281 160 -400.9 154.106C-406.282 150.807 -410.807 146.282 -414.106 140.9C-420 131.281 -420 118.187 -420 92V-565Z" fill="white"/>
<path d="M12 24C18.6274 24 24 18.6274 24 12C24 5.37258 18.6274 0 12 0C5.37258 0 0 5.37258 0 12C0 18.6274 5.37258 24 12 24Z" fill="#F0F0F0"/>
<path d="M15.8966 8.86955H14.3265C14.3395 9.0421 14.3469 9.21619 14.3469 9.39127C14.3469 10.5521 14.0567 11.6772 13.5509 12.4781C13.3949 12.7252 13.1326 13.074 12.7816 13.3093V8.86951H11.2164V13.3093C10.8655 13.074 10.6032 12.7252 10.4472 12.4781C9.9413 11.6772 9.65119 10.5521 9.65119 9.39127C9.65119 9.21619 9.65859 9.04205 9.67153 8.86955H8.1015C8.09142 9.04126 8.08594 9.21516 8.08594 9.39127C8.08594 12.6095 9.80475 15.1304 11.999 15.1304C14.1932 15.1304 15.912 12.6095 15.912 9.39127C15.9121 9.21516 15.9066 9.04126 15.8966 8.86955Z" fill="#DA0000"/>
<path d="M4.95653 5.73914H6.52173V6.78262H8.08694V5.73914H9.65214V6.78262H11.2173V5.73914H12.7825V6.78262H14.3477V5.73914H15.913V6.78262H17.4782V5.73914H19.0434V6.78262H22.8092C20.8683 2.76867 16.7575 0 12 0C7.24253 0 3.13173 2.76867 1.19073 6.78262H4.95653V5.73914Z" fill="#239F40"/>
<path d="M19.0434 17.2174V18.2609H17.4782V17.2174H15.913V18.2609H14.3478V17.2174H12.7826V18.2609H11.2174V17.2174H9.65216V18.2609H8.08696V17.2174H6.52161V18.2609H4.95641V17.2174H1.19061C3.13161 21.2314 7.24236 24 11.9999 24C16.7574 24 20.8682 21.2314 22.8092 17.2174H19.0434Z" fill="#DA0000"/>
</svg>
