<svg width="24" height="24" viewBox="0 0 24 24" fill="none" xmlns="http://www.w3.org/2000/svg">
<rect width="24" height="24" fill="#F5F5F5"/>
<path d="M-755 -117C-755 -143.187 -755 -156.281 -749.106 -165.9C-745.807 -171.282 -741.282 -175.807 -735.9 -179.106C-726.281 -185 -713.187 -185 -687 -185H215C241.187 -185 254.281 -185 263.9 -179.106C269.282 -175.807 273.807 -171.282 277.106 -165.9C283 -156.281 283 -143.187 283 -117V540C283 566.187 283 579.281 277.106 588.9C273.807 594.282 269.282 598.807 263.9 602.106C254.281 608 241.187 608 215 608H-687C-713.187 608 -726.281 608 -735.9 602.106C-741.282 598.807 -745.807 594.282 -749.106 588.9C-755 579.281 -755 566.187 -755 540V-117Z" fill="white"/>
<path d="M12 24C18.6274 24 24 18.6274 24 12C24 5.37258 18.6274 0 12 0C5.37258 0 0 5.37258 0 12C0 18.6274 5.37258 24 12 24Z" fill="#009B3A"/>
<path d="M12.0001 4.69565L21.9132 12L12.0001 19.3043L2.0871 12L12.0001 4.69565Z" fill="#FEDF00"/>
<path d="M11.9997 16.1739C14.3049 16.1739 16.1736 14.3052 16.1736 12C16.1736 9.69483 14.3049 7.82611 11.9997 7.82611C9.69452 7.82611 7.82581 9.69483 7.82581 12C7.82581 14.3052 9.69452 16.1739 11.9997 16.1739Z" fill="#F0F0F0"/>
<path d="M9.91257 11.7391C9.18676 11.7391 8.48631 11.8495 7.82697 12.0544C7.85617 14.3344 9.71261 16.1739 11.9995 16.1739C13.4137 16.1739 14.6626 15.47 15.4176 14.3942C14.1259 12.7771 12.1383 11.7391 9.91257 11.7391Z" fill="#002776"/>
<path d="M16.0965 12.7997C16.1468 12.5408 16.1739 12.2736 16.1739 12C16.1739 9.69478 14.3052 7.82611 12 7.82611C10.28 7.82611 8.80343 8.86678 8.16443 10.3526C8.72927 10.2356 9.31408 10.1739 9.9131 10.1739C12.3373 10.1739 14.5304 11.1816 16.0965 12.7997Z" fill="#002776"/>
</svg>
