<svg width="24" height="24" viewBox="0 0 24 24" fill="none" xmlns="http://www.w3.org/2000/svg">
<rect width="24" height="24" fill="#F5F5F5"/>
<path d="M-80 -117C-80 -143.187 -80 -156.281 -74.1056 -165.9C-70.8074 -171.282 -66.2822 -175.807 -60.8999 -179.106C-51.2812 -185 -38.1874 -185 -12 -185H890C916.187 -185 929.281 -185 938.9 -179.106C944.282 -175.807 948.807 -171.282 952.106 -165.9C958 -156.281 958 -143.187 958 -117V540C958 566.187 958 579.281 952.106 588.9C948.807 594.282 944.282 598.807 938.9 602.106C929.281 608 916.187 608 890 608H-12C-38.1875 608 -51.2812 608 -60.8999 602.106C-66.2822 598.807 -70.8074 594.282 -74.1056 588.9C-80 579.281 -80 566.187 -80 540V-117Z" fill="white"/>
<path d="M12 24C18.6274 24 24 18.6274 24 12C24 5.37258 18.6274 0 12 0C5.37258 0 0 5.37258 0 12C0 18.6274 5.37258 24 12 24Z" fill="#F0F0F0"/>
<path d="M23.2536 16.1739C23.736 14.8739 24 13.4678 24 12C24 10.5322 23.736 9.1261 23.2536 7.82611H0.746391C0.264047 9.1261 0 10.5322 0 12C0 13.4678 0.264047 14.8739 0.746391 16.1739L12 17.2174L23.2536 16.1739Z" fill="#0039A6"/>
<path d="M11.9989 24C17.1585 24 21.557 20.7435 23.2525 16.1739H0.745316C2.44083 20.7435 6.83935 24 11.9989 24Z" fill="#D80027"/>
</svg>
