<svg width="24" height="24" viewBox="0 0 24 24" fill="none" xmlns="http://www.w3.org/2000/svg">
<rect width="24" height="24" fill="#F5F5F5"/>
<path d="M-755 -173C-755 -199.187 -755 -212.281 -749.106 -221.9C-745.807 -227.282 -741.282 -231.807 -735.9 -235.106C-726.281 -241 -713.187 -241 -687 -241H215C241.187 -241 254.281 -241 263.9 -235.106C269.282 -231.807 273.807 -227.282 277.106 -221.9C283 -212.281 283 -199.187 283 -173V484C283 510.187 283 523.281 277.106 532.9C273.807 538.282 269.282 542.807 263.9 546.106C254.281 552 241.187 552 215 552H-687C-713.187 552 -726.281 552 -735.9 546.106C-741.282 542.807 -745.807 538.282 -749.106 532.9C-755 523.281 -755 510.187 -755 484V-173Z" fill="white"/>
<path d="M12 24C18.6274 24 24 18.6274 24 12C24 5.37258 18.6274 0 12 0C5.37258 0 0 5.37258 0 12C0 18.6274 5.37258 24 12 24Z" fill="#F0F0F0"/>
<path d="M12 0C5.37262 0 0 5.37262 0 12C0 13.4678 0.264047 14.874 0.746391 16.1739H23.2537C23.736 14.874 24 13.4678 24 12C24 5.37262 18.6274 0 12 0Z" fill="#0052B4"/>
<path d="M11.9989 0C6.83933 0 2.44082 3.2565 0.7453 7.82611H23.2526C21.557 3.2565 17.1585 0 11.9989 0Z" fill="#D80027"/>
<path d="M3.10315 6.78262V12.7688C3.10315 16.174 7.55163 17.2174 7.55163 17.2174C7.55163 17.2174 12.0001 16.174 12.0001 12.7688V6.78262H3.10315Z" fill="#D80027"/>
<path d="M4.94299 7.8261H10.1604V5.73913L9.11693 6.26085L7.55173 4.69565L5.98648 6.26085L4.94299 5.73913V7.8261Z" fill="#FFD500"/>
<path d="M10.9568 13.6023L7.56551 10.211L4.17419 13.6023L5.28096 14.7091L7.56551 12.4245L9.85005 14.7091L10.9568 13.6023Z" fill="#FFD500"/>
<path d="M10.9568 10.4348H9.37451C9.46348 10.2812 9.51523 10.1034 9.51523 9.91317C9.51523 9.3368 9.04802 8.86969 8.47174 8.86969C8.07354 8.86969 7.72774 9.09272 7.55182 9.42061C7.3759 9.09277 7.0301 8.86969 6.6319 8.86969C6.05562 8.86969 5.58841 9.3368 5.58841 9.91317C5.58841 10.1034 5.64016 10.2813 5.72913 10.4348H4.17419C4.17419 11.0111 4.67618 11.4783 5.25241 11.4783H5.21768C5.21768 12.0546 5.68484 12.5218 6.26116 12.5218C6.26116 13.032 6.62763 13.456 7.11162 13.5467L6.28943 15.4031C6.68346 15.5633 7.11405 15.6522 7.56555 15.6522C8.01705 15.6522 8.44765 15.5633 8.84168 15.4031L8.01949 13.5467C8.50348 13.4561 8.86994 13.0321 8.86994 12.5218C9.44627 12.5218 9.91343 12.0546 9.91343 11.4783H9.87869C10.4549 11.4783 10.9568 11.0111 10.9568 10.4348Z" fill="#F0F0F0"/>
</svg>
