<svg width="24" height="24" viewBox="0 0 24 24" fill="none" xmlns="http://www.w3.org/2000/svg">
<rect width="24" height="24" fill="#F5F5F5"/>
<path d="M-755 -453C-755 -479.187 -755 -492.281 -749.106 -501.9C-745.807 -507.282 -741.282 -511.807 -735.9 -515.106C-726.281 -521 -713.187 -521 -687 -521H215C241.187 -521 254.281 -521 263.9 -515.106C269.282 -511.807 273.807 -507.282 277.106 -501.9C283 -492.281 283 -479.187 283 -453V204C283 230.187 283 243.281 277.106 252.9C273.807 258.282 269.282 262.807 263.9 266.106C254.281 272 241.187 272 215 272H-687C-713.187 272 -726.281 272 -735.9 266.106C-741.282 262.807 -745.807 258.282 -749.106 252.9C-755 243.281 -755 230.187 -755 204V-453Z" fill="white"/>
<path d="M12 24C18.6274 24 24 18.6274 24 12C24 5.37258 18.6274 0 12 0C5.37258 0 0 5.37258 0 12C0 18.6274 5.37258 24 12 24Z" fill="#FFD500"/>
<path d="M0 12C0 5.37262 5.37262 0 12 0C18.6274 0 24 5.37262 24 12" fill="#005BBB"/>
</svg>
