<svg width="24" height="24" viewBox="0 0 24 24" fill="none" xmlns="http://www.w3.org/2000/svg">
<path fill-rule="evenodd" clip-rule="evenodd" d="M8.00982 8.25871V7.08078C8.00982 4.82703 9.79627 3 12 3C14.2037 3 15.9901 4.82703 15.9901 7.08078V8.25561C16.2286 8.28092 16.4707 8.30839 16.7167 8.33803C17.5714 8.44096 18.3021 9.03117 18.5341 9.8787C19.2914 12.6442 19.4615 15.732 19.4997 18.3664C19.5175 19.5933 18.606 20.6265 17.4109 20.7344C13.4784 21.0893 10.5969 21.0887 6.59318 20.7315C5.39622 20.6247 4.48237 19.5909 4.50026 18.3622C4.53858 15.7299 4.70881 12.6453 5.46485 9.88213C5.69726 9.03274 6.43033 8.44209 7.28696 8.34002C7.53185 8.31084 7.77261 8.28374 8.00982 8.25871ZM9.41811 7.08078C9.41811 5.62247 10.574 4.44027 12 4.44027C13.4259 4.44027 14.5818 5.62247 14.5818 7.08078V8.12867C12.8196 7.99993 11.1927 8.00123 9.41811 8.13181V7.08078ZM8.90174 12.3618C9.42025 12.3618 9.84059 11.9319 9.84059 11.4016C9.84059 10.8713 9.42025 10.4414 8.90174 10.4414H8.89235C8.37383 10.4414 7.95349 10.8713 7.95349 11.4016C7.95349 11.9319 8.37383 12.3618 8.89235 12.3618H8.90174ZM16.037 11.4016C16.037 11.9319 15.6167 12.3618 15.0982 12.3618H15.0888C14.5703 12.3618 14.1499 11.9319 14.1499 11.4016C14.1499 10.8713 14.5703 10.4414 15.0888 10.4414H15.0982C15.6167 10.4414 16.037 10.8713 16.037 11.4016Z" fill="#08081A"/>
</svg>
