<svg width="24" height="24" viewBox="0 0 24 24" fill="none" xmlns="http://www.w3.org/2000/svg">
<path fill-rule="evenodd" clip-rule="evenodd" d="M9.40208 21.0005C9.33979 21.0005 9.2775 20.9756 9.22767 20.9299L7.6954 19.3977C7.63727 19.3354 7.61235 19.2482 7.62896 19.1651L7.89057 18.0979L6.82338 18.3554C6.74033 18.3762 6.64897 18.3512 6.59084 18.289L3.06952 14.7718C3.01138 14.7095 2.98647 14.6223 3.00723 14.5393C3.02799 14.4562 3.09028 14.3856 3.16918 14.3607C3.18579 14.3565 4.83433 13.8292 5.88491 13.1108C5.95135 13.0651 6.00949 13.0236 6.06762 12.9821L11.0174 17.9318C10.2367 18.9575 9.64292 20.8095 9.63462 20.8303C9.6097 20.9133 9.54326 20.9756 9.46021 20.9964C9.43945 20.9964 9.42284 21.0005 9.40208 21.0005ZM6.28355 12.7994C6.37906 12.7122 6.48287 12.6167 6.59084 12.5128C6.80677 12.3052 7.04761 12.0727 7.31752 11.8484L12.151 16.6819C11.9268 16.9519 11.6943 17.1927 11.4866 17.4086C11.3828 17.5166 11.2873 17.6204 11.2001 17.7159L6.28355 12.7994ZM7.54176 11.674C8.3515 11.0719 9.40208 10.6235 10.7433 11.1508C10.7766 11.1591 10.8015 11.1799 10.8264 11.2048L12.7947 13.1731C12.8196 13.1938 12.8362 13.2229 12.8486 13.2561C13.376 14.5974 12.9275 15.648 12.3254 16.4577L7.54176 11.674Z" fill="#08081A"/>
<path fill-rule="evenodd" clip-rule="evenodd" d="M10.8097 10.8726L11.1419 10.5404C11.3454 10.3369 11.6817 10.3369 11.8893 10.5404L13.459 12.1101C13.6625 12.3177 13.6625 12.6499 13.459 12.8575L13.1268 13.1897L13.1102 13.1523C13.0853 13.0859 13.0437 13.0236 12.9939 12.9738L11.0256 11.0055C10.9716 10.9515 10.9094 10.91 10.8429 10.8851L10.8097 10.8726Z" fill="#08081A"/>
<path fill-rule="evenodd" clip-rule="evenodd" d="M12.151 10.4075L19.2601 3.29843C19.4511 3.10326 19.7085 2.99945 19.9826 2.99945C20.2525 2.99945 20.51 3.10326 20.701 3.29843C20.892 3.48945 21 3.7469 21 4.01681C21 4.29088 20.892 4.54833 20.701 4.73935L13.5919 11.8484L12.151 10.4075Z" fill="#08081A"/>
</svg>
