<?xml version="1.0" encoding="utf-8"?><svg xmlns="http://www.w3.org/2000/svg" xmlns:xlink="http://www.w3.org/1999/xlink"><symbol viewBox="0 0 24 24" fill="none" id="icon-arrow-left"><path d="M21 12H3M3 12L9.5 5.5M3 12L9.5 18.5" stroke="currentColor" stroke-width="1.5" stroke-linecap="round" stroke-linejoin="round"/></symbol><symbol viewBox="0 0 24 24" fill="none" id="icon-arrow-right"><path d="M14.5414 6.5L19.9 11.8586C19.9781 11.9367 19.9781 12.0633 19.9 12.1414L14.5414 17.5M19.9586 12H4.04142" stroke="currentColor" stroke-width="1.5" stroke-linecap="round"/></symbol><symbol viewBox="0 0 32 32" fill="none" id="icon-bag"><path fill-rule="evenodd" clip-rule="evenodd" d="M10.6798 11.0116V9.44103C10.6798 6.43603 13.0617 4 15.9999 4C18.9382 4 21.3201 6.43603 21.3201 9.44103V11.0075C21.6382 11.0412 21.9609 11.0779 22.289 11.1174C23.4286 11.2546 24.4028 12.0416 24.7122 13.1716C25.7219 16.8589 25.9487 20.976 25.9997 24.4885C26.0234 26.1244 24.8081 27.502 23.2145 27.6458C17.9712 28.1191 14.1292 28.1183 8.79091 27.642C7.19496 27.4996 5.97649 26.1211 6.00034 24.4829C6.05145 20.9731 6.27841 16.8603 7.28647 13.1762C7.59634 12.0437 8.57377 11.2561 9.71595 11.12C10.0425 11.0811 10.3635 11.045 10.6798 11.0116ZM12.5575 9.44103C12.5575 7.49662 14.0987 5.92036 15.9999 5.92036C17.9012 5.92036 19.4424 7.49662 19.4424 9.44103V10.8382C17.0929 10.6666 14.9236 10.6683 12.5575 10.8424V9.44103ZM11.869 16.4824C12.5603 16.4824 13.1208 15.9092 13.1208 15.2021C13.1208 14.4951 12.5603 13.9219 11.869 13.9219H11.8565C11.1651 13.9219 10.6047 14.4951 10.6047 15.2021C10.6047 15.9092 11.1651 16.4824 11.8565 16.4824H11.869ZM21.3827 15.2021C21.3827 15.9092 20.8223 16.4824 20.1309 16.4824H20.1184C19.427 16.4824 18.8666 15.9092 18.8666 15.2021C18.8666 14.4951 19.427 13.9219 20.1184 13.9219H20.1309C20.8223 13.9219 21.3827 14.4951 21.3827 15.2021Z" fill="currentColor"/></symbol><symbol viewBox="0 0 24 24" fill="none" id="icon-check"><path d="M4 11.8743L9.18415 17.683C9.26315 17.7715 9.40471 17.7725 9.48506 17.6851L20 6.25" stroke="currentColor" stroke-width="1.5" stroke-linecap="round"/></symbol><symbol viewBox="0 0 24 24" fill="none" id="icon-chevron-down"><path d="M8 10L11.8586 13.8586C11.9367 13.9367 12.0633 13.9367 12.1414 13.8586L16 10" stroke="currentColor" stroke-width="1.5" stroke-linecap="round"/></symbol><symbol viewBox="0 0 24 24" fill="none" id="icon-chevron-left"><path d="M14 8L10.1414 11.8586C10.0633 11.9367 10.0633 12.0633 10.1414 12.1414L14 16" stroke="currentColor" stroke-width="1.5" stroke-linecap="round"/></symbol><symbol viewBox="0 0 24 24" fill="none" id="icon-chevron-right"><path d="M10 16L13.8586 12.1414C13.9367 12.0633 13.9367 11.9367 13.8586 11.8586L10 8" stroke="currentColor" stroke-width="1.5" stroke-linecap="round"/></symbol><symbol viewBox="0 0 24 24" fill="none" id="icon-chevron-right-large"><path d="M7.75 20.5L16.1086 12.1414C16.1867 12.0633 16.1867 11.9367 16.1086 11.8586L7.75 3.5" stroke="currentColor" stroke-width="1.5" stroke-linecap="round"/></symbol><symbol viewBox="0 0 24 24" fill="none" id="icon-chevron-up"><path d="M8 14L11.8586 10.1414C11.9367 10.0633 12.0633 10.0633 12.1414 10.1414L16 14" stroke="currentColor" stroke-width="1.5" stroke-linecap="round"/></symbol><symbol viewBox="0 0 24 24" fill="none" id="icon-clear"><path fill-rule="evenodd" clip-rule="evenodd" d="M8.82476 23.0007C8.74863 23.0007 8.6725 22.9702 8.6116 22.9144L6.73882 21.0416C6.66777 20.9655 6.63732 20.8589 6.65762 20.7574L6.97736 19.453L5.67302 19.7677C5.57151 19.7931 5.45985 19.7626 5.3888 19.6865L1.08497 15.3877C1.01391 15.3116 0.983462 15.205 1.00884 15.1035C1.03422 15.002 1.11034 14.9157 1.20677 14.8853C1.22708 14.8802 3.24196 14.2357 4.526 13.3576C4.60721 13.3018 4.67826 13.2511 4.74932 13.2003L10.799 19.25C9.84489 20.5036 9.11913 22.7672 9.10898 22.7926C9.07852 22.8941 8.99732 22.9702 8.89581 22.9956C8.87044 22.9956 8.85014 23.0007 8.82476 23.0007ZM5.01323 12.977C5.12996 12.8704 5.25684 12.7537 5.3888 12.6268C5.65271 12.373 5.94708 12.0888 6.27697 11.8147L12.1846 17.7224C11.9105 18.0523 11.6263 18.3466 11.3725 18.6105C11.2457 18.7425 11.1289 18.8694 11.0224 18.9861L5.01323 12.977ZM6.55104 11.6016C7.54072 10.8657 8.82476 10.3175 10.4641 10.9621C10.5047 10.9723 10.5351 10.9976 10.5656 11.0281L12.9713 13.4338C13.0017 13.4591 13.022 13.4947 13.0372 13.5353C13.6818 15.1746 13.1337 16.4586 12.3978 17.4483L6.55104 11.6016Z" fill="currentColor"/><path fill-rule="evenodd" clip-rule="evenodd" d="M10.5452 10.6221L10.9512 10.2161C11.1999 9.96737 11.611 9.96737 11.8647 10.2161L13.7832 12.1345C14.0319 12.3883 14.0319 12.7943 13.7832 13.0481L13.3772 13.4541L13.3569 13.4084C13.3264 13.3272 13.2757 13.2511 13.2148 13.1902L10.8091 10.7845C10.7431 10.7185 10.667 10.6678 10.5858 10.6373L10.5452 10.6221Z" fill="currentColor"/><path fill-rule="evenodd" clip-rule="evenodd" d="M12.1846 10.0536L20.8734 1.36475C21.1069 1.12621 21.4216 0.999329 21.7565 0.999329C22.0864 0.999329 22.4011 1.12621 22.6346 1.36475C22.868 1.59821 23 1.91288 23 2.24277C23 2.57774 22.868 2.89241 22.6346 3.12587L13.9457 11.8147L12.1846 10.0536Z" fill="currentColor"/></symbol><symbol viewBox="0 0 24 24" fill="none" id="icon-cross"><path d="M5.5 5.5L18.5 18.5M18.5 5.5L5.5 18.5" stroke="currentColor" stroke-width="1.8" stroke-linecap="round"/></symbol><symbol viewBox="0 0 24 24" fill="none" id="icon-crown"><path d="M16.4644 19.5H7.53562C5.76365 19.5 4.27124 18.1757 4.06047 16.4163L3.25673 9.70734C3.15542 8.8617 4.0901 8.28458 4.80076 8.75397L6.30374 9.7467C7.32691 10.4225 8.71174 10.0269 9.2235 8.91257L10.937 5.18156C11.1278 4.76621 11.543 4.5 12 4.5C12.4571 4.5 12.8723 4.76621 13.063 5.18156L14.7766 8.91257C15.2883 10.0269 16.6731 10.4225 17.6963 9.7467L19.1993 8.75398C19.9099 8.28459 20.8446 8.86171 20.7433 9.70736L19.9395 16.4163C19.7287 18.1757 18.2363 19.5 16.4644 19.5Z" stroke="currentColor" stroke-width="1.5"/><path d="M12 13.5V16" stroke="currentColor" stroke-width="1.5" stroke-linecap="round"/></symbol><symbol viewBox="0 0 24 24" fill="none" id="icon-diamond"><path d="M17.6635 7.17868L13.1907 21.3426L24 7.17868H17.6635Z" fill="currentColor"/><path d="M3.48444 2.16858L0.0506592 6.28913H5.8881L3.48444 2.16858Z" fill="currentColor"/><path d="M20.5155 2.16858L18.1118 6.28913H23.9493L20.5155 2.16858Z" fill="currentColor"/><path d="M6.33647 7.17868H0L10.8093 21.3426L6.33647 7.17868Z" fill="currentColor"/><path d="M13.0737 1.84122L17.2441 6.01159L19.6766 1.84122H13.0737Z" fill="currentColor"/><path d="M4.32336 1.84122L6.7559 6.01159L10.9263 1.84122H4.32336Z" fill="currentColor"/><path d="M7.26917 7.17868L12 22.1588L16.7308 7.17868H7.26917Z" fill="currentColor"/><path d="M12 2.02536L7.73621 6.28911H16.2637L12 2.02536Z" fill="currentColor"/></symbol><symbol viewBox="0 0 24 24" fill="none" id="icon-dots-vertical"><path d="M12 5.5L12 5.51M12 12L12 12.01M12 18.49L12 18.5" stroke="currentColor" stroke-width="3" stroke-linecap="round"/></symbol><symbol viewBox="0 0 24 24" fill="none" id="icon-filter"><path d="M21 7.5H13.5M3 7.5H5.5M5.5 7.5C5.5 8.88071 6.61929 10 8 10C9.38071 10 10.5 8.88071 10.5 7.5C10.5 6.11929 9.38071 5 8 5C6.61929 5 5.5 6.11929 5.5 7.5Z" stroke="currentColor" stroke-width="1.5" stroke-linecap="round"/><path d="M3 16.5H10.5M21 16.5H18.5M18.5 16.5C18.5 17.8807 17.3807 19 16 19C14.6193 19 13.5 17.8807 13.5 16.5C13.5 15.1193 14.6193 14 16 14C17.3807 14 18.5 15.1193 18.5 16.5Z" stroke="currentColor" stroke-width="1.5" stroke-linecap="round"/></symbol><symbol viewBox="0 0 24 24" fill="none" id="icon-heart"><path d="M3 8.79999C3 6.03856 5.23858 3.79999 8 3.79999C9.40389 3.79999 10.6726 4.74731 11.5808 5.78351C11.8003 6.03393 12.1997 6.03393 12.4192 5.78352C13.3274 4.74731 14.5961 3.79999 16 3.79999C18.7614 3.79999 21 6.03856 21 8.79999C21 12.8819 15.9642 17.5715 13.4264 19.6757C12.5922 20.3673 11.4078 20.3673 10.5736 19.6757C8.03577 17.5715 3 12.8819 3 8.79999Z" stroke="currentColor" stroke-width="1.5"/></symbol><symbol viewBox="0 0 24 24" fill="none" id="icon-home"><path d="M3.95353 8.61072L10.4175 3.54689C11.3483 2.8177 12.6517 2.8177 13.5825 3.54689L20.0465 8.61072C20.7843 9.18877 20.9893 10.0491 20.9996 11.0435C21.0001 11.0974 20.9984 11.1495 20.9943 11.2033C20.9525 11.7548 20.6634 15.1249 19.5949 18.9084C19.2173 19.9615 18.3289 21 17.1067 21H15.918C15.1777 21 14.4713 20.3956 14.4713 19.65L14.5776 16.846C14.5776 15.4122 13.4236 14.2498 12 14.2498C10.5764 14.2498 9.42239 15.4122 9.42239 16.846L9.54168 19.65C9.54168 20.3956 8.82229 21 8.08203 21H6.89335C5.6711 21 4.78269 19.9615 4.40511 18.9084C3.33663 15.1249 3.0475 11.7548 3.00568 11.2033C3.0016 11.1495 2.99986 11.0974 3.00041 11.0435C3.01068 10.0491 3.21566 9.18877 3.95353 8.61072Z" fill="currentColor"/></symbol><symbol viewBox="0 0 24 24" fill="none" id="icon-language"><g clip-path="url(#rclip0_30_11)"><path fill-rule="evenodd" clip-rule="evenodd" d="M12 22.75C17.9371 22.75 22.75 17.9371 22.75 12C22.75 6.06294 17.9371 1.25 12 1.25C6.06294 1.25 1.25 6.06294 1.25 12C1.25 17.9371 6.06294 22.75 12 22.75ZM12 2.75C11.2638 2.75 10.4362 3.42497 9.76361 5.19529C9.43847 6.05114 9.18341 7.08654 9.01048 8.25H14.9895C14.8166 7.08654 14.5615 6.05114 14.2364 5.19529C13.5638 3.42497 12.7362 2.75 12 2.75ZM8.36139 4.66257C7.9714 5.68911 7.68106 6.90808 7.49512 8.25H3.5417C4.58696 5.89589 6.58615 4.05928 9.04863 3.23083C8.78246 3.66894 8.55422 4.15501 8.36139 4.66257ZM7.33463 9.75H3.02556C2.84556 10.4703 2.75 11.224 2.75 12C2.75 12.776 2.84556 13.5297 3.02556 14.25H7.33463C7.27842 13.5225 7.25 12.7694 7.25 12C7.25 11.2306 7.27842 10.4775 7.33463 9.75ZM7.49512 15.75H3.5417C4.58696 18.1041 6.58615 19.9407 9.04863 20.7692C8.78247 20.3311 8.55422 19.845 8.36139 19.3374C7.9714 18.3109 7.68106 17.0919 7.49512 15.75ZM9.01048 15.75H14.9895C14.8166 16.9135 14.5615 17.9489 14.2364 18.8047C13.5638 20.575 12.7362 21.25 12 21.25C11.2638 21.25 10.4362 20.575 9.76361 18.8047C9.43847 17.9489 9.18341 16.9135 9.01048 15.75ZM15.1606 14.25H8.83937C8.78053 13.5315 8.75 12.7784 8.75 12C8.75 11.2216 8.78053 10.4685 8.83937 9.75H15.1606C15.2195 10.4685 15.25 11.2216 15.25 12C15.25 12.7784 15.2195 13.5315 15.1606 14.25ZM16.5049 15.75C16.3189 17.0919 16.0286 18.3109 15.6386 19.3374C15.4458 19.845 15.2175 20.3311 14.9514 20.7692C17.4138 19.9407 19.413 18.1041 20.4583 15.75H16.5049ZM20.9744 14.25H16.6654C16.7216 13.5225 16.75 12.7694 16.75 12C16.75 11.2306 16.7216 10.4775 16.6654 9.75H20.9744C21.1544 10.4703 21.25 11.224 21.25 12C21.25 12.776 21.1544 13.5297 20.9744 14.25ZM14.9514 3.23083C17.4138 4.05928 19.413 5.89589 20.4583 8.25H16.5049C16.3189 6.90808 16.0286 5.68911 15.6386 4.66257C15.4458 4.15501 15.2175 3.66894 14.9514 3.23083Z" fill="currentColor"/></g><defs><clipPath id="rclip0_30_11"><rect width="24" height="24" fill="currentColor"/></clipPath></defs></symbol><symbol viewBox="0 0 24 24" fill="none" id="icon-list-check"><path d="M3 5.98451L4.25454 7.21867C4.29658 7.26003 4.3707 7.26051 4.41345 7.21969L7 4.75M3 11.9845L4.25454 13.2187C4.29658 13.26 4.3707 13.2605 4.41345 13.2197L7 10.75M3 17.9845L4.25454 19.2187C4.29658 19.26 4.3707 19.2605 4.41345 19.2197L7 16.75M10.5 6.25H21M10.5 12.25H21M10.5 18.25H21" stroke="currentColor" stroke-width="1.5" stroke-linecap="round"/></symbol><symbol viewBox="0 0 24 24" fill="none" id="icon-minus"><path d="M5 12H19" stroke="currentColor" stroke-width="1.5" stroke-linecap="round"/></symbol><symbol viewBox="0 0 24 24" fill="none" id="icon-plus"><path d="M5 12H19M12 5V19" stroke="currentColor" stroke-width="1.5" stroke-linecap="round"/></symbol><symbol viewBox="0 0 24 24" fill="none" id="icon-search"><circle cx="10.75" cy="10.75" r="6.75" stroke="currentColor" stroke-width="1.5"/><path d="M20.75 20.75L15.75 15.75" stroke="currentColor" stroke-width="1.5" stroke-linecap="round"/></symbol><symbol viewBox="0 0 24 24" fill="none" id="icon-star"><path d="M11.5361 3.77347C11.7371 3.40884 12.2629 3.40884 12.4639 3.77347L14.8791 8.15512C15.0319 8.43226 15.3014 8.62648 15.6134 8.68429L20.567 9.60209C20.98 9.67861 21.1432 10.181 20.8536 10.4841L17.3975 14.1009C17.1771 14.3315 17.0731 14.649 17.1145 14.9647L17.7622 19.9035C17.8165 20.3169 17.3903 20.6265 17.0118 20.4487L12.4513 18.3069C12.1655 18.1727 11.8345 18.1727 11.5487 18.3069L6.98822 20.4487C6.60966 20.6265 6.18353 20.3169 6.23776 19.9035L6.88548 14.9647C6.92689 14.649 6.8229 14.3315 6.60252 14.1009L3.14643 10.4841C2.85677 10.181 3.01999 9.67861 3.43298 9.60209L8.38659 8.68429C8.69859 8.62649 8.9681 8.43226 9.12086 8.15512L11.5361 3.77347Z" fill="currentColor"/></symbol><symbol viewBox="0 0 24 24" fill="none" id="icon-trash"><path d="M5 7L6.64499 18.8439C6.81665 20.0799 7.8734 21 9.12122 21H14.8788C16.1266 21 17.1833 20.0799 17.355 18.8439L19 7" stroke="currentColor" stroke-width="1.7" stroke-linecap="round"/><path d="M8.30002 4.25659C8.59506 3.52014 9.15814 3 9.99999 3H14C14.8419 3 15.4649 3.52014 15.76 4.25659" stroke="currentColor" stroke-width="1.7" stroke-linecap="round"/><path d="M3.5 6.5H20.5" stroke="currentColor" stroke-width="1.7" stroke-linecap="round"/><path d="M10 10.5L10.5 16" stroke="currentColor" stroke-width="1.7" stroke-linecap="round"/><path d="M14 10.5L13.5 16" stroke="currentColor" stroke-width="1.7" stroke-linecap="round"/></symbol></svg>