<svg width="24" height="24" viewBox="0 0 24 24" fill="none" xmlns="http://www.w3.org/2000/svg">
<path d="M2.33235 5.99246C2.45298 4.90586 3.49429 4.0498 4.79831 3.95615C10.1587 3.57116 13.8805 3.57004 19.1979 3.95377C20.5083 4.04834 21.5509 4.91301 21.6669 6.00536C22.1349 10.4142 22.0917 13.5272 21.6503 17.973C21.5407 19.0775 20.4909 19.9572 19.1664 20.0508C13.8334 20.4277 10.116 20.4268 4.85097 20.0526C3.5232 19.9583 2.47347 19.0738 2.36501 17.9665C1.93396 13.5657 1.83803 10.445 2.33235 5.99246Z" stroke="#08081A" stroke-width="1.5"/>
<path d="M5.33334 7.55554L10.123 11.9461C11.185 12.9196 12.815 12.9196 13.877 11.9461L18.6667 7.55554" stroke="#08081A" stroke-width="1.5" stroke-linecap="round"/>
</svg>
