<svg width="24" height="24" viewBox="0 0 24 24" fill="none" xmlns="http://www.w3.org/2000/svg">
<path d="M21 7.5H13.5M3 7.5H5.5M5.5 7.5C5.5 8.88071 6.61929 10 8 10C9.38071 10 10.5 8.88071 10.5 7.5C10.5 6.11929 9.38071 5 8 5C6.61929 5 5.5 6.11929 5.5 7.5Z" stroke="#08081A" stroke-width="1.5" stroke-linecap="round"/>
<path d="M3 16.5H10.5M21 16.5H18.5M18.5 16.5C18.5 17.8807 17.3807 19 16 19C14.6193 19 13.5 17.8807 13.5 16.5C13.5 15.1193 14.6193 14 16 14C17.3807 14 18.5 15.1193 18.5 16.5Z" stroke="#08081A" stroke-width="1.5" stroke-linecap="round"/>
</svg>
