<svg width="24" height="24" viewBox="0 0 24 24" fill="none" xmlns="http://www.w3.org/2000/svg">
<path d="M3.29918 5.51122C3.40777 4.3377 4.34515 3.41315 5.51901 3.31201C10.3443 2.89622 13.6947 2.89501 18.4814 3.30944C19.661 3.41158 20.5996 4.34542 20.704 5.52515C21.1253 10.2867 21.0864 13.6487 20.6891 18.4502C20.5904 19.6431 19.6454 20.5931 18.453 20.6942C13.6523 21.1012 10.3059 21.1003 5.56642 20.6962C4.37117 20.5943 3.42621 19.6391 3.32857 18.4432C2.94055 13.6903 2.8542 10.3199 3.29918 5.51122Z" stroke="#08081A" stroke-width="1.5"/>
<path d="M9.75 12.8C10.8588 14.2879 12.4331 15.4074 14.25 16M9.75 16C14.25 14.9333 14.25 9.6 14.25 9.6M7.5 9.6H12M12 9.6H16.5M12 9.6V8" stroke="#08081A" stroke-width="1.5" stroke-linecap="round"/>
</svg>
