<svg width="160" height="160" viewBox="0 0 160 160" fill="none" xmlns="http://www.w3.org/2000/svg">
<path d="M32 0.25H128C145.535 0.25 159.75 14.465 159.75 32V128C159.75 145.535 145.535 159.75 128 159.75H32C14.465 159.75 0.25 145.535 0.25 128V32C0.25 14.465 14.465 0.25 32 0.25Z" stroke="#08081A" stroke-opacity="0.12" stroke-width="0.5"/>
<path d="M24 80C24 49.0721 49.0721 24 80 24C110.928 24 136 49.0721 136 80C136 110.928 110.928 136 80 136C49.0721 136 24 110.928 24 80Z" fill="#0D81FF"/>
<path fill-rule="evenodd" clip-rule="evenodd" d="M79.2132 51.9217H80.7949C93.164 51.9217 103.282 62.0539 103.282 74.3945V96.8433C103.282 103.001 98.2024 108.078 92.0391 108.078H67.969C61.8057 108.078 56.726 103.022 56.726 96.8433V74.3945C56.726 62.0327 66.8441 51.9217 79.2133 51.9217H79.2132ZM110.756 70.4424H112.607C114.473 70.4424 116 71.9683 116 73.8334V91.6301C116 93.4952 114.473 95.0211 112.607 95.0211H110.756C108.89 95.0211 107.363 93.4952 107.363 91.6301V73.8334C107.363 71.9683 108.89 70.4424 110.756 70.4424ZM47.3934 70.4424H49.2452C51.1117 70.4424 52.6386 71.9683 52.6386 73.8334V91.6301C52.6386 93.4952 51.1117 95.0211 49.2452 95.0211H47.3934C45.527 95.0211 44 93.4952 44 91.6301V73.8334C44 71.9683 45.527 70.4424 47.3934 70.4424ZM79.2132 58.3593C70.3992 58.3593 63.1682 65.6158 63.1682 74.3945V75.3075C63.1682 83.4345 96.8399 83.4412 96.8399 75.3075V74.3945C96.8399 65.5866 89.5797 58.3593 80.7949 58.3593H79.2132Z" fill="white"/>
</svg>
