<svg width="24" height="24" viewBox="0 0 24 24" fill="none" xmlns="http://www.w3.org/2000/svg">
<path d="M16.4644 19.5H7.53562C5.76365 19.5 4.27124 18.1757 4.06047 16.4163L3.25673 9.70734C3.15542 8.8617 4.0901 8.28458 4.80076 8.75397L6.30374 9.7467C7.32691 10.4225 8.71174 10.0269 9.2235 8.91257L10.937 5.18156C11.1278 4.76621 11.543 4.5 12 4.5C12.4571 4.5 12.8723 4.76621 13.063 5.18156L14.7766 8.91257C15.2883 10.0269 16.6731 10.4225 17.6963 9.7467L19.1993 8.75398C19.9099 8.28459 20.8446 8.86171 20.7433 9.70736L19.9395 16.4163C19.7287 18.1757 18.2363 19.5 16.4644 19.5Z" stroke="#08081A" stroke-width="1.5"/>
<path d="M12 13.5V16" stroke="#08081A" stroke-width="1.5" stroke-linecap="round"/>
</svg>
