<svg width="24" height="24" viewBox="0 0 24 24" fill="none" xmlns="http://www.w3.org/2000/svg">
<path opacity="0.25" d="M19.5713 8.01902C14.6083 6.71298 9.39187 6.71298 4.4289 8.01902L3.48701 8.26689C3.3904 8.29231 3.32737 8.38511 3.33935 8.48429L4.60328 18.9496C4.83075 20.8331 6.42906 22.25 8.32623 22.25H15.6739C17.5711 22.25 19.1694 20.8331 19.3969 18.9496L20.6608 8.48429C20.6728 8.38511 20.6098 8.29231 20.5132 8.26689L19.5713 8.01902Z" fill="#08081A"/>
<g opacity="0.52">
<path fill-rule="evenodd" clip-rule="evenodd" d="M19.9531 6.56847C14.7399 5.19658 9.26047 5.19658 4.04727 6.56847L2.69105 6.92537C2.29048 7.03078 1.88029 6.79151 1.77488 6.39093C1.66946 5.99036 1.90874 5.58017 2.30931 5.47476L3.66553 5.11786C9.12896 3.68011 14.8714 3.68011 20.3348 5.11786L21.6911 5.47476C22.0916 5.58017 22.3309 5.99036 22.2255 6.39093C22.1201 6.79151 21.7099 7.03078 21.3093 6.92537L19.9531 6.56847Z" fill="#08081A"/>
<path fill-rule="evenodd" clip-rule="evenodd" d="M12 1.5C10.3493 1.5 8.86761 2.58123 8.39025 4.17245L8.28164 4.53449C8.21351 4.76157 8.25677 5.00749 8.39829 5.1977C8.53981 5.38791 8.76293 5.5 9.00001 5.5L15 5.5C15.2371 5.5 15.4602 5.3879 15.6017 5.1977C15.7432 5.00749 15.7865 4.76157 15.7184 4.53449L15.6098 4.17245C15.1324 2.58123 13.6508 1.5 12 1.5Z" fill="#08081A"/>
</g>
</svg>
